<?xml version="1.0" standalone="no"?>
<!DOCTYPE svg PUBLIC "-//W3C//DTD SVG 1.1//EN" "http://www.w3.org/Graphics/SVG/1.1/DTD/svg11.dtd">
<svg version="1.1" xmlns="http://www.w3.org/2000/svg" viewBox="0 0 1300 617" width="1300" height="617"><!-- svg-source:excalidraw --><metadata><!-- payload-type:application/vnd.excalidraw+json --><!-- payload-version:2 --><!-- payload-start -->eyJ2ZXJzaW9uIjoiMSIsImVuY29kaW5nIjoiYnN0cmluZyIsImNvbXByZXNzZWQiOnRydWUsImVuY29kZWQiOiJ4nO1dW3Pbxlx1MDAxOX33r+DIr5GDXWBveek4TtKkbdI0TpteJlx1MDAwZlx1MDAxMFx0SqgogkNCvjTjXHUwMDE5O4lrx0mbmyfTxElcdTAwMWOP7ViTaaxmMo1cdTAwMWSrdn5MXHUwMDA0ivpcdTAwMTddQFwiceFcdTAwMTLaXHUwMDA1SWspQVx1MDAwZlx1MDAxYXJcdTAwMDFcdTAwMTBcdTAwMWaBc3jO9+1cdTAwMDVvXHUwMDFjqVTm/LMtZ+6pypxzpmo33FrbPj33RNh+yml3XFyvyTfB6H3HW21Xoz2XfL/VeerJJ+MjjlW9lZ2jnIaz4jT9XHUwMDBl3+8v/H2l8kb0n29xa+GxVbt5yu7Mt+xatH+0pVx1MDAxZkHbqfp2c7HhxJvO8HZj8O5s6t1pt+Yv8Vx1MDAxNlx1MDAwMGncuOS4i0s+b0Usbtz50OSxXHUwMDFkv+0tOye8htdcdTAwMGXP7LftZqdlt3nk8blcdTAwMTfs6vJi21tt1lx1MDAwNvtcdTAwMWStR3/xPnW30Tjpn40+nV8hfjXmMud4rVx1MDAxZmWmfdRR/ISLS02n00nF67XsquuH31x1MDAxZlx1MDAxOHFrXHUwMDE4XeuFWnSxX49jatsrzlx1MDAwYuHVbq42XHUwMDFhyVx1MDAwZm7Wdj84taHjOOHOzDDiXHUwMDE4Mzc/2faS14xgYFx1MDAxYZgwXGboYLvbeYbffT/6sLrd6DjxlVxmT/1sXHUwMDAyXHUwMDE5cbCrrZq9c1xiIIRcdTAwMTGEgMFcdTAwMDCxXHUwMDA221x1MDAxYm5zOVx1MDAxYnDDqy5Hh/jt1fgkbrPmhHCZs425qO3cXHUwMDEzXCJcdTAwMDB2Vlstr+3PN+xcdTAwMDWnMYxB3znjp+FHYFxuf1x1MDAwNFxmXHUwMDAxkOFh+EFLXHUwMDFlfUeNOsHYyUWeXHUwMDEwodNFXHUwMDFmeJzo41x1MDAxZmypoFx1MDAwZpiAYYNcdTAwMThcdTAwMDbeR/ylz1x1MDAxMkGHX9Lu1fXuR1x1MDAxZlx1MDAwNt+9mbhRXtM/6f4tXG6cplqfs1fcxtnUN1xyP+d4w11cZr//XFzDqSduOL9cYr7Lf3RcdTAwMDebfa9cdTAwMTVvrfLPs92m01x1MDAxZb78XttddJt249XRMfJv6jzfhy84XHUwMDA2kYBZIN7dXvW9V5zOzpdcbomYw7l6wztdmHCAxVesZNxEXHUwMDE5h5PA2otxlFFOOVx1MDAxNEejXHUwMDBi3zY3NoIrNzbvb2w9+EljyonDlGFcdTAwMWQsxrqG57XkWYdI2mchYlx1MDAwZTstLDBaSryDXGKbzsJh51x1MDAxZE2iay/eQVx1MDAwM0NcdTAwMTOaXHUwMDE21VDp3rnTu/FecO3L3r11jZknXHUwMDBlU4Z5ZjHmrTgrXvvs/IJ3RjrJMY00/XB8t/vsg0DAPlx1MDAxYV/KiajeUadar9XRXGLmLdnVpdW2M4p7MNO+r9zr35P42pu7LeeGKZm4tDLmXHUwMDEzc1x1MDAxZDSwsa/JT/osMWatvOxnXHUwMDE3mb7rJ1x1MDAwMThaXHUwMDE1TJiGJVx1MDAxOfZigFxiYGlOXHUwMDE4llx1MDAwN19cdTAwMTTAXHUwMDEw2nJcdTAwMTHIIGOYWkRcdTAwMWZcdTAwMDT2ReHFXGJiQjlI/MbKyEGVx+u0pyBcYtlcdTAwMTBlpFx1MDAwMI0lXHUwMDA1ndWFXCJ0XHUwMDAzYFhcdTAwMDaEfINcbsWuo9hcIlx1MDAxNj3sJlxmqJVcdTAwMWJcdTAwMTA0ICZapj//+6y3/kXlycr2jVx1MDAxZreu3eUvgotrwXfne3f/XHUwMDEz/PR3sS3ThIeyocvwXHUwMDEzXHUwMDE342dnmYNayallXHUwMDEzpak4NYk86ahTr+ORteiD69SUilx1MDAxNsCAXHUwMDE0XHUwMDAxXHUwMDEzs5hi+83bXHUwMDE4siS3Tlx1MDAxZFx1MDAwMVPaqCW7O6Zm1MrsPVx1MDAwNKBS9lx1MDAwZShcIojn7kA/4ThcdTAwMTlcIkxrn5aJUEZcdTAwMDboODIg6dKyXFwrXdrUyFx1MDAwNtXycmpZgFFcdTAwMTPrVyrbWvs+uPtZ979cdTAwMTe21t79+fyF7tqN7lx1MDAxNz/xXHUwMDE3vbc/637+b61dmmzoMvRkxei55HnLSiaNWo/BpC1YyDRYvkmr1+vEqVx1MDAxZDaTXHUwMDA21YpcdTAwMTlcdTAwMTgxjC1sxXvsN21jxFx1MDAxZc8zaVx1MDAxMS6lPVx1MDAxYcWPwaNJgPJcdTAwMTDIhlpyT5hl8cumXHUwMDEx/vqy8TxcdTAwMDeY1lx1MDAxNi1cdTAwMWSgjFx1MDAwNDw9hlx1MDAwNEhcdTAwMWG0LNFKgzY9piml41xmUIBcdTAwMDE29CNacO92cPFe8M4/glx1MDAwZv5cdTAwMTmanPc/2Hxwi7/t3jzfvX5ba38mXHUwMDFiulxmOU9cdTAwMTSscldbSvZcZlx1MDAxOGasfeE14z+/w1xmZVx1MDAwMoYyXHUwMDE1LSRV006aL6FBQ3Xz8FXRoFJcdTAwMTGDXHUwMDAy/lx1MDAwYlxuiZbdnc/kdndyXFxK2zNgoFxmKDFcdTAwMWNcdTAwMDYlXHUwMDFh16BJgPLgy4aplNcjjKHBk1x1MDAwNH2KuIPOzlx1MDAxMy9rbc9S8clcYsCzxVx1MDAwNUDSnFxy0VxmJWCWS7PSnSnTTClcdTAwMGY3TVx1MDAwYlx1MDAwMINqOKYguPXJ9ltrW99vbG1cXO+99TC4ci24eDt4/6bevmzPoGVcYvlcXDFCLnq2WrdmpldcdTAwMTNaXHUwMDAyUlxuXHKZXG4py1x1MDAwMWiVxC1LMVWpYlx1MDAwMbHJXHUwMDE4spA+TI1cdTAwMDH7yzxDXHUwMDE2wVLakWX6WSBcdTAwMTKk8WP7sXL0WVxiP7VedYRcdEVUw1x1MDAxMclbV9e6l+9tXbvb/eqS2JjhVOv+dapcYlx1MDAwM5VcdTAwMTGE58dcdTAwMTBcdTAwMDRJi5blXcJ4l1x1MDAwNm2yvFPKwy3CXHUwMDAw5DzRL1x1MDAwZtqZ3PLz+Vx1MDAwYltcdTAwMGa+7n5xnb/Y/ua97tVcdTAwMWY4uoNLmlx1MDAwZkKTXGZdhpsvXHUwMDE042ZcdTAwMTgtj2asXHRcdTAwMDNcIsMm7OJUMmzlOLRK4rYlmWspVTBcdTAwMDBcdTAwMDFcdTAwMTZBJoX6VL5j1P4qz7H1sVl4yoDQtZVD0SahXHUwMDFlllJ6XHUwMDBmXHQ0gFx0NVx1MDAxY8Lcu3mx9/Dh5v0rm/ff7X6it3FcdTAwMWJcdTAwMTmrjD78ejx9KDiLQOjfyu7PiTBQKW3HJkZcdTAwMTjrWGDbXHUwMDE5gM/xvLnxQzi0687bweVP+YucyTy6+DfZ0GX4+Zti/Gw17CaPdaxpXHUwMDA0XHUwMDEwXG78XHUwMDFiXHUwMDE0kFx1MDAxNJgqLK1CXHUwMDBiXHUwMDE41emNUTMz7TNk4Fx1MDAxNEtcdTAwMWXQJCY0Ncq9Yti+mGfg+uCUn0pA0/0zQlx1MDAwM0etYWQqXHUwMDE5OFx0YFx1MDAxZVx1MDAwMvlQSv9cdGZcYiBm6lx1MDAwM8HBQlx1MDAwMGs3gi/f7d29XHUwMDExXFz+SOze1Fx1MDAxNlx1MDAwMpiaWIhcdTAwMDOVkYaXxpNcdTAwMDbZqVx1MDAwNVnuiaybiHuldVPlXHUwMDFlUkrgIaGMXHUwMDE5WKNcdTAwMWWXQd/o5VvdT77l2cjm/fPdb29cdTAwMDdX1jZcdTAwMWZ+rrVj2yNiXHUwMDE5Nv62XHUwMDE4XHUwMDFifc9T61x1MDAxNc3OI5jOOLWyW7SSuGcpkqpVOCg1XHUwMDE4XCJcdTAwMWHNtYtcdTAwMTH7cp5Hi3BZeFx1MDAxZcF0xqmV/aIh/lx1MDAxNCdcdTAwMTJcdTAwMDBgMqzjZM+dNZAqr3KgaV1eXHUwMDEzximjXGK/XHUwMDFiQ1x1MDAxMVxuTisoXHUwMDA3rk2Pd2rJuVx1MDAwNS3CjGRKr1x1MDAwYu9661x1MDAxYnFp6t6HwYdcdTAwMGY3N26Fo/Sv/ri5cXPrq1x1MDAwYlo7NYXoZTj6SjGOelx1MDAwYlx1MDAxZKd9ylx1MDAxOau8JjJuwvKaknEru0criduWXCKwWmVcdTAwMDPy7GqfXHUwMDE3k1x1MDAxZWXcTuZcdTAwMTm3PjRcdTAwMGKv0yH0bqL1zMveUVVccsFKXHQ+JSYyLFPH3tE7b1x1MDAwNuvXtzY+7n4pzut18W7iQGWE4dXxhKHgulx1MDAxZEL/JuJe6d+Uuae2XHUwMDAwXHUwMDAwNMPp1zqtp9knX8eveas+tzw1t15cdTAwMGadz+VvgmuPwlx1MDAxN1dub1/9VGv3Jlx1MDAxZLtcZkV/X5Ciq35rVW1k29Dk0OnMRbA4PvBeq3fQul2vXHUwMDFlNu+G1YpcdTAwMWVcdTAwMThcdTAwMTPK+Vx1MDAwYvVJvmLU/iHXvO1gs/hcdTAwMDTR6UxIkFx1MDAwMOYhXHUwMDEwXHUwMDEw1WX+XHUwMDEwg1x1MDAxNib6dY32XHUwMDFlfVx1MDAxY1xcejBcdTAwMGLuTVx1MDAxOKiMNLw2ljRcdTAwMTSdNlrOSphcdTAwMWX51JY4tExiXHUwMDAwRHQk352b25euxFx1MDAwZWj7m/d661x1MDAxN/iLQeej1lx1MDAwNk4lfFx1MDAxOaL+sVx1MDAxOFFrTtVccm+42MXVXFx7xWvW0mzN9ptCKFwia1xms3h0XHUwMDFiVJFKXHUwMDFiYGiQPTycU6869Fx1MDAwMHg4MVeJUpXDXHUwMDA0XGZcdTAwMDBINHpqVozOP+V5tVx1MDAwMVx1MDAwNuV7SVx1MDAxMUtDXHUwMDEws2FcYooqwEpmjVwiq2ZcdTAwMWP2XlKi1ktcdTAwMGZMTFxmQol+pbbtz8/3vr6ws6DSL8RuzUq17t+oZ3GkMirw52IqYM9HU0h351wiXGYz0G63vdNpXG7C7Fx1MDAxOGcqXHUwMDE4PSNcdTAwMTCBXHQvKTAmXHUwMDAxNVx1MDAxZuJcZndbXHUwMDA0iTxRTOSpwSyMNUrkW56bfJZs+Fx1MDAxN7+qxKiI3lxmXr/+hHDvXHUwMDE4aZndj2RcdTAwMGWba9hcdTAwMWT/hLey4vr8e7xcdTAwMWPGMPTT59tt/2nOKbe5mN3mNGsjtkRHXHUwMDFkXHUwMDBmebLk2EO3mVx1MDAxZpfcliVUTGA7TyijXHUwMDA3vs27TZ5ayahkUlx1MDAxNXdUcvj5pqZAJFx1MDAxM7TVgaOzIJJKXHUwMDE1XHJcdTAwMGJBXHUwMDBiXHUwMDEyXGY0zKlcdTAwMWV9XHUwMDFjXFxcdTAwMWORN5mp1n0tZVxcVMyNXHUwMDE2iqpif3Le7khvKWFEiSxnlDCagmeclsI4IWFUK3CYhHtWSlx1MDAxM4uD7zdcdTAwMTknKowx0jK7z5owVvOE0e4zdL6fS0pRlWbXWVx1MDAxMFBcdTAwMTWO6WGnP1x1MDAxN2p2qUqV6lx1MDAxYoBCZFx1MDAxYcDSqMAxUarCg+Jha/lUXHUwMDFklHt2Olx0pJiaeornyHRzTFWdfufcXGZTVW3QXHUwMDA3QVx1MDAwNEGNJjNONtk8KJrq7J1sNj25XHUwMDBlvCw9XHUwMDEzXHUwMDAz9Fx1MDAwNkoqmNqolGqWnechXHUwMDEx1eo+gFx1MDAxYYRZXHUwMDFhzWxcdTAwMWZMbfzga63zzFR8MklmvWiSXHUwMDE5d3+kJsbkqCFcdTAwMDPp7nJcdTAwMTNccouhoK6TqFKUKeZYYqhU7jE5VSCEXHUwMDFhPYFmomqY2pvg2VXDxb3V8KzTkeqeTFx1MDAwMCTiJ1x1MDAxNTyibFxcNSxcdTAwMGKvIVx1MDAxM5WKPdDkPlx1MDAxNjKNmDiYwvmvda3VMFx1MDAxNZ+MXHUwMDFhLlx1MDAxNVXDaNLm7uB/uVwiXHUwMDBlzDzZg1xy93LAst46NTFkSkVcdTAwMWPG98dEp9XNJyqG8/Cg5IZuflx1MDAxMac/PUelZ1x1MDAwNNN0kmiZcrZ1wovajsvUYyizZXBcXM3uLDl6k1VtNI+BXHUwMDAxpVxiXHUwMDFk1EJOau95MsNs/atEJUc4smfYvGKW7r80XHUwMDEz7/ssReOa13JcdTAwMTJrSEa1Ulx1MDAwZWPMwlx1MDAwMGnU/TFYIT5cdTAwMWGy3Ht4d1x1MDAxMlx1MDAxZbbh1P0pOFhBjDI+drmoj12JlihVXHUwMDFhUmdcdTAwMTlxXHUwMDA0XHUwMDEx9Fx1MDAwNEVUgT5izco6x0aOrJ5cdTAwMDF9VJuahC1KsJWcXHUwMDExu9+UnJ4+4lx1MDAxOS7tNPLNbGeZo1vNypJCVE0sVKKDRs42VdXG+Vx1MDAxMFx1MDAwYlx1MDAxYlx1MDAxNmBcdTAwMWE9pGF6VLXQ7FJ1JZ+q0aPClVx1MDAwNvkwUIiqSCXrXFywkGlMd+TAXGZTNXlCmdVaXHUwMDE4pdSkXHUwMDFh+dzpMVx1MDAxNc1wztmUYKrCXHUwMDEwXHUwMDFmhtLVoeRcdTAwMTTCwVxiXHUwMDFmXHUwMDEwo6ZYfahkaj5T1Yb5XHUwMDAwfi35fTqgTE2gLfyb5fqQl8/V6FnqsqNcdTAwMGY4SOJ7M7LHRVAhUuHp9J+kPts8VStcdTAwMWRZXHUwMDA2XHUwMDAyVnKJrFx1MDAwM8XT+Vx1MDAxOGyZ/WeNpq1dmlx1MDAxZdmNmbe0Tvr8olx1MDAwZvAxd8p1Tj8tftBcdTAwMGL/XHUwMDBij4/gXHUwMDEyXHUwMDEywYlgde7Iuf9cdTAwMDNaZehcdTAwMDMifQ==<!-- payload-end --></metadata><defs><style class="style-fonts">
      </style></defs><rect x="0" y="0" width="1300" height="617" fill="#ffffff"></rect><g stroke-linecap="round" transform="translate(10 10) rotate(0 640 295)"><path d="M0 0 L1280 0 L1280 590 L0 590" stroke="none" stroke-width="0" fill="#ffffff"></path><path d="M0 0 C307.79 0, 615.59 0, 1280 0 M0 0 C276.91 0, 553.82 0, 1280 0 M1280 0 C1280 139.31, 1280 278.63, 1280 590 M1280 0 C1280 182.64, 1280 365.29, 1280 590 M1280 590 C796.58 590, 313.16 590, 0 590 M1280 590 C993.23 590, 706.46 590, 0 590 M0 590 C0 395.39, 0 200.78, 0 0 M0 590 C0 445.87, 0 301.75, 0 0" stroke="transparent" stroke-width="1" fill="none"></path></g><g transform="translate(82 81) rotate(0 48 12)"><text x="0" y="16.1103515625" font-family="Helvetica, sans-serif, Segoe UI Emoji" font-size="18px" fill="#0f766e" text-anchor="start" style="white-space: pre;" direction="ltr" dominant-baseline="alphabetic">支撑层</text></g><g transform="translate(82 208) rotate(0 48 12)"><text x="0" y="16.1103515625" font-family="Helvetica, sans-serif, Segoe UI Emoji" font-size="18px" fill="#0f766e" text-anchor="start" style="white-space: pre;" direction="ltr" dominant-baseline="alphabetic">任务主线</text></g><g transform="translate(580 583) rotate(0 80 12)"><text x="0" y="16.1103515625" font-family="Helvetica, sans-serif, Segoe UI Emoji" font-size="18px" fill="#2563eb" text-anchor="start" style="white-space: pre;" direction="ltr" dominant-baseline="alphabetic">执行回路</text></g><g stroke-linecap="round" transform="translate(310 76) rotate(0 105 41)"><path d="M2.98 7.89 C2.98 7.89, 2.98 7.89, 2.98 7.89 M2.98 7.89 C2.98 7.89, 2.98 7.89, 2.98 7.89 M3.77 19.18 C5.76 15.12, 10.85 11.6, 13.61 7.86 M3.77 19.18 C7.62 15.13, 11.57 10.39, 13.61 7.86 M3.91 31.22 C10.24 22.02, 19.52 15.72, 26.21 5.56 M3.91 31.22 C8.49 26.27, 13.9 19.58, 26.21 5.56 M4.04 43.26 C11 33.29, 18.98 26, 36.84 5.53 M4.04 43.26 C14.98 30.86, 24.24 19.83, 36.84 5.53 M4.17 55.3 C17.55 42.75, 27.14 28.61, 47.47 5.49 M4.17 55.3 C15.46 41.77, 28 26.92, 47.47 5.49 M2.99 68.85 C18.96 51.08, 34.14 31.66, 58.1 5.46 M2.99 68.85 C17.5 51.05, 32.73 33.82, 58.1 5.46 M6.41 77.12 C33.39 48.24, 56.79 19.06, 68.73 5.42 M6.41 77.12 C24.4 56.73, 40.93 36.32, 68.73 5.42 M13.1 81.61 C28.91 64.09, 45.77 45.07, 79.36 5.39 M13.1 81.61 C31.25 59.43, 51.94 38.66, 79.36 5.39 M22.42 83.09 C37.17 63.24, 53.86 46.72, 89.99 5.35 M22.42 83.09 C38.87 64.02, 53.68 45.69, 89.99 5.35 M33.05 83.05 C53.68 59.04, 75.41 34.83, 100.62 5.32 M33.05 83.05 C53.05 61, 71.91 38.22, 100.62 5.32 M43.02 83.77 C65.75 54.6, 88.98 27.64, 111.25 5.28 M43.02 83.77 C65.66 56.36, 89.82 28.4, 111.25 5.28 M53.65 83.74 C79.19 54.37, 106.89 26.59, 121.88 5.25 M53.65 83.74 C73.76 60.83, 94.91 37.54, 121.88 5.25 M64.28 83.7 C81.06 66.11, 95.57 51.37, 132.51 5.21 M64.28 83.7 C89.42 53.58, 115.32 24.93, 132.51 5.21 M74.91 83.67 C90.25 66.06, 105.53 50.66, 143.14 5.18 M74.91 83.67 C100.52 53.51, 126.89 23.34, 143.14 5.18 M85.54 83.64 C109.73 57.88, 134.76 30.97, 153.77 5.15 M85.54 83.64 C102.63 63.84, 119.68 44.81, 153.77 5.15 M96.17 83.6 C118.38 60.22, 135.93 35.88, 164.4 5.11 M96.17 83.6 C116.62 60.78, 134.81 40.06, 164.4 5.11 M106.8 83.57 C120.03 66.15, 133.46 50.04, 175.03 5.08 M106.8 83.57 C125.71 62.24, 144.55 40.51, 175.03 5.08 M117.43 83.53 C142.13 55.38, 167.62 28.89, 189.6 0.51 M117.43 83.53 C132.22 65.38, 148.34 46.28, 189.6 0.51 M128.06 83.5 C142.41 66.11, 158.07 47.66, 198.92 1.99 M128.06 83.5 C153.78 54.91, 178.99 25.05, 198.92 1.99 M138.69 83.46 C163.95 56.24, 185.47 29, 206.27 5.73 M138.69 83.46 C156.53 60.62, 176.85 38.38, 206.27 5.73 M149.32 83.43 C164.29 65.54, 179.26 51.21, 209.68 14 M149.32 83.43 C167.64 62.61, 186.67 40.39, 209.68 14 M159.95 83.39 C171.24 69.26, 183.02 53.93, 215.06 20 M159.95 83.39 C174.28 69.14, 186.52 51.77, 215.06 20 M170.58 83.36 C180.32 71.55, 194.39 57.39, 215.19 32.04 M170.58 83.36 C186.61 64.09, 204.49 43.01, 215.19 32.04 M181.21 83.33 C191.4 72.82, 202.67 60.39, 215.33 44.08 M181.21 83.33 C193.02 69.44, 204.57 57.06, 215.33 44.08 M191.19 84.05 C194.98 78.78, 201.62 75.79, 210.21 62.16 M191.19 84.05 C197.77 75.6, 204.82 67.54, 210.21 62.16" stroke="#ecfdf5" stroke-width="1" fill="none"></path><path d="M20.5 0 C54.9 0.06, 88.68 1.34, 189.5 0 M20.5 0 C72.65 0.26, 126.98 -1.36, 189.5 0 M189.5 0 C202.86 0.49, 211.69 8.51, 210 20.5 M189.5 0 C203.76 -1.23, 211.89 5.32, 210 20.5 M210 20.5 C208.34 30.94, 210.16 43.8, 210 61.5 M210 20.5 C210.14 29.2, 211.11 38.5, 210 61.5 M210 61.5 C209.31 74.63, 202.07 82.56, 189.5 82 M210 61.5 C208.2 76.51, 203.04 83.76, 189.5 82 M189.5 82 C152.09 80.68, 110.76 81.3, 20.5 82 M189.5 82 C124.75 82.41, 61.11 83.3, 20.5 82 M20.5 82 C7.11 81.66, 0.5 74.08, 0 61.5 M20.5 82 C8.86 80.34, -1.52 73.47, 0 61.5 M0 61.5 C-1.81 51.84, -0.62 37.09, 0 20.5 M0 61.5 C-0.03 44.93, 0.41 30.06, 0 20.5 M0 20.5 C-1.73 5.24, 5.8 1.04, 20.5 0 M0 20.5 C1.38 5.69, 7.17 2.09, 20.5 0" stroke="#0f766e" stroke-width="2" fill="none"></path></g><g transform="translate(330 88) rotate(0 85 16)"><text x="85" y="22.37548828125" font-family="Helvetica, sans-serif, Segoe UI Emoji" font-size="25px" fill="#0f766e" text-anchor="middle" style="white-space: pre;" direction="ltr" dominant-baseline="alphabetic">Memory</text></g><g transform="translate(330 126) rotate(0 85 10)"><text x="85" y="13.42529296875" font-family="Helvetica, sans-serif, Segoe UI Emoji" font-size="15px" fill="#64748b" text-anchor="middle" style="white-space: pre;" direction="ltr" dominant-baseline="alphabetic">会话 / 项目 / 全局记忆</text></g><g stroke-linecap="round" transform="translate(580 76) rotate(0 105 41)"><path d="M2.98 7.89 C2.98 7.89, 2.98 7.89, 2.98 7.89 M2.98 7.89 C2.98 7.89, 2.98 7.89, 2.98 7.89 M1.15 22.2 C6.65 12.78, 14.99 7.3, 20.17 0.31 M1.15 22.2 C9.34 13.11, 16.33 5.95, 20.17 0.31 M1.28 34.24 C7.3 26.54, 15.98 18.41, 30.8 0.28 M1.28 34.24 C7.65 26.25, 14.9 17.87, 30.8 0.28 M0.76 47.03 C15.24 29.7, 26.43 15.25, 40.78 1 M0.76 47.03 C13.91 31.02, 27.54 16.11, 40.78 1 M0.89 59.08 C18.04 39.2, 36.32 17.31, 51.41 0.96 M0.89 59.08 C13.51 44.23, 26.73 30.76, 51.41 0.96 M1.68 70.36 C17.73 56.14, 30.71 39.49, 62.04 0.93 M1.68 70.36 C18.66 50.47, 37.22 29.8, 62.04 0.93 M6.41 77.12 C27.03 55.31, 45.54 34.47, 72.67 0.89 M6.41 77.12 C22.28 59.5, 38.73 40.35, 72.67 0.89 M13.1 81.61 C40 50.85, 68.68 18.82, 83.3 0.86 M13.1 81.61 C31.26 57.9, 51.48 35.88, 83.3 0.86 M23.07 82.33 C39.55 61.49, 58.35 43.5, 93.93 0.82 M23.07 82.33 C43.21 60.26, 62.2 37.45, 93.93 0.82 M33.7 82.3 C61.55 51.06, 91.81 16.5, 104.56 0.79 M33.7 82.3 C58.49 52.4, 85.24 21.35, 104.56 0.79 M44.33 82.26 C67.27 55.74, 88.99 28.67, 115.19 0.76 M44.33 82.26 C59.63 63.4, 76.55 42.96, 115.19 0.76 M54.96 82.23 C80.86 50.06, 109.88 18.7, 125.82 0.72 M54.96 82.23 C72.9 61.93, 90.2 41.04, 125.82 0.72 M65.59 82.2 C89.79 54.87, 118.26 25.05, 136.45 0.69 M65.59 82.2 C93.43 50.18, 120.41 19.24, 136.45 0.69 M76.22 82.16 C97.65 56.48, 117.41 33.83, 147.08 0.65 M76.22 82.16 C104.18 50.08, 132.48 15.91, 147.08 0.65 M86.85 82.13 C114.69 51.18, 142.91 17.43, 157.71 0.62 M86.85 82.13 C102.92 61.87, 121.89 42.12, 157.71 0.62 M97.48 82.09 C114.94 60.2, 133.25 40.63, 168.34 0.58 M97.48 82.09 C120.86 56.46, 142.86 29.6, 168.34 0.58 M108.11 82.06 C125.01 63.59, 140.11 42.5, 178.97 0.55 M108.11 82.06 C129.35 58.06, 149.81 33.22, 178.97 0.55 M118.74 82.02 C146.3 51.98, 173.91 19.67, 189.6 0.51 M118.74 82.02 C140.65 55.05, 164.89 27.93, 189.6 0.51 M129.37 81.99 C150.82 56.56, 171.29 35.07, 198.92 1.99 M129.37 81.99 C148.2 59.59, 169.02 36.03, 198.92 1.99 M140 81.95 C164.51 50.47, 191.81 23.45, 205.61 6.48 M140 81.95 C161.98 54.27, 185.48 26.87, 205.61 6.48 M150.63 81.92 C174.19 57.3, 195.42 30.2, 209.02 14.75 M150.63 81.92 C169.59 60.67, 187.72 38.71, 209.02 14.75 M161.26 81.88 C180.12 60.44, 197.26 42.27, 210.47 25.28 M161.26 81.88 C178.02 62.57, 195.41 43.19, 210.47 25.28 M171.89 81.85 C182.18 72.02, 191.9 61.29, 210.6 37.32 M171.89 81.85 C186.53 65.82, 199.8 48.61, 210.6 37.32 M182.52 81.82 C193.14 71.21, 200.58 60.02, 210.74 49.36 M182.52 81.82 C188.76 75.35, 195.58 67.84, 210.74 49.36 M193.16 81.78 C196.43 77.53, 202.31 72.09, 210.21 62.16 M193.16 81.78 C199.77 74.68, 206.25 68.02, 210.21 62.16" stroke="#eff6ff" stroke-width="1" fill="none"></path><path d="M20.5 0 C56.05 -0.21, 90.77 -1.74, 189.5 0 M20.5 0 C79.23 0.18, 136.41 -0.13, 189.5 0 M189.5 0 C203.08 -0.34, 208.97 6.27, 210 20.5 M189.5 0 C204.95 2.14, 208.48 6.51, 210 20.5 M210 20.5 C209.25 36.75, 208.44 51.79, 210 61.5 M210 20.5 C209.15 34.93, 210.62 50.2, 210 61.5 M210 61.5 C208.88 77.04, 204.98 80.24, 189.5 82 M210 61.5 C211.87 76.89, 204.06 84.02, 189.5 82 M189.5 82 C134.52 83.29, 81.16 84.03, 20.5 82 M189.5 82 C143.3 82.14, 97.2 81.16, 20.5 82 M20.5 82 C7.79 83.94, -0.56 73.25, 0 61.5 M20.5 82 C6.05 80.23, 2.24 74.05, 0 61.5 M0 61.5 C1.72 45.2, -1.2 30.01, 0 20.5 M0 61.5 C0.13 52.55, -0.12 41.62, 0 20.5 M0 20.5 C0.89 5.22, 8.49 1.2, 20.5 0 M0 20.5 C2.25 7.07, 8.66 1.93, 20.5 0" stroke="#2563eb" stroke-width="2" fill="none"></path></g><g transform="translate(600 88) rotate(0 85 16)"><text x="85" y="22.37548828125" font-family="Helvetica, sans-serif, Segoe UI Emoji" font-size="25px" fill="#2563eb" text-anchor="middle" style="white-space: pre;" direction="ltr" dominant-baseline="alphabetic">Skill</text></g><g transform="translate(600 126) rotate(0 85 10)"><text x="85" y="13.42529296875" font-family="Helvetica, sans-serif, Segoe UI Emoji" font-size="15px" fill="#64748b" text-anchor="middle" style="white-space: pre;" direction="ltr" dominant-baseline="alphabetic">稳定流程、模板、脚本</text></g><g stroke-linecap="round" transform="translate(850 76) rotate(0 105 41)"><path d="M2.98 7.89 C2.98 7.89, 2.98 7.89, 2.98 7.89 M2.98 7.89 C2.98 7.89, 2.98 7.89, 2.98 7.89 M1.15 22.2 C8.07 14.92, 16.13 6.77, 20.17 0.31 M1.15 22.2 C4.76 18.4, 9.45 13.35, 20.17 0.31 M1.28 34.24 C10.53 24.64, 22.06 10.7, 30.8 0.28 M1.28 34.24 C9.91 24.34, 17.45 16.04, 30.8 0.28 M0.76 47.03 C10.03 33.43, 22.81 22.87, 40.78 1 M0.76 47.03 C16.72 29.23, 30.4 13.1, 40.78 1 M0.89 59.08 C13.71 45.86, 28.56 30.15, 51.41 0.96 M0.89 59.08 C11.75 47.27, 21.62 35.49, 51.41 0.96 M1.68 70.36 C23.01 42.31, 48.35 16.29, 62.04 0.93 M1.68 70.36 C19.78 47.99, 38.24 27.51, 62.04 0.93 M6.41 77.12 C32.31 51.65, 53.62 21.7, 72.67 0.89 M6.41 77.12 C32.81 47.63, 59.33 17.77, 72.67 0.89 M13.1 81.61 C37.7 50.89, 63.2 23.09, 83.3 0.86 M13.1 81.61 C31.74 59.03, 52.37 37.06, 83.3 0.86 M23.07 82.33 C40.49 62.79, 56.6 40.24, 93.93 0.82 M23.07 82.33 C46.14 56.15, 68.5 31.77, 93.93 0.82 M33.7 82.3 C55.98 59.88, 75.6 36.44, 104.56 0.79 M33.7 82.3 C51.77 61.95, 69.28 42.03, 104.56 0.79 M44.33 82.26 C66.57 58.04, 85.88 31.89, 115.19 0.76 M44.33 82.26 C65.55 56.73, 88.49 30.57, 115.19 0.76 M54.96 82.23 C81.85 52.39, 111.21 18.59, 125.82 0.72 M54.96 82.23 C69.55 65.43, 84.23 49.85, 125.82 0.72 M65.59 82.2 C88.09 58.07, 111.77 30.14, 136.45 0.69 M65.59 82.2 C78.95 65.72, 93.85 47.92, 136.45 0.69 M76.22 82.16 C103.13 53.06, 126.81 23.84, 147.08 0.65 M76.22 82.16 C91.39 65.03, 108.46 46.3, 147.08 0.65 M86.85 82.13 C104.87 63.34, 121.19 40.09, 157.71 0.62 M86.85 82.13 C103.22 63.58, 119.47 43.86, 157.71 0.62 M97.48 82.09 C115.01 65.19, 129.3 47.27, 168.34 0.58 M97.48 82.09 C124.66 52.48, 149.75 22.34, 168.34 0.58 M108.11 82.06 C125.77 59.17, 146 37.7, 178.97 0.55 M108.11 82.06 C130.95 57.64, 152.3 30.54, 178.97 0.55 M118.74 82.02 C135.43 60.47, 155.42 42.12, 189.6 0.51 M118.74 82.02 C137.52 60.78, 154 41.62, 189.6 0.51 M129.37 81.99 C154.2 52.17, 179.79 23.32, 198.92 1.99 M129.37 81.99 C143.77 65.24, 158.67 47.44, 198.92 1.99 M140 81.95 C155.33 61.82, 171.96 45.33, 205.61 6.48 M140 81.95 C155.05 63.86, 171.18 45.75, 205.61 6.48 M150.63 81.92 C167.59 59.46, 187.86 40.48, 209.02 14.75 M150.63 81.92 C168.83 59.54, 188.68 37.14, 209.02 14.75 M161.26 81.88 C175.14 66.93, 189.06 47.79, 210.47 25.28 M161.26 81.88 C174.04 68.22, 184.18 54.49, 210.47 25.28 M171.89 81.85 C180.25 71.51, 191.11 58.52, 210.6 37.32 M171.89 81.85 C185.33 66.45, 198.26 50.52, 210.6 37.32 M182.52 81.82 C195.34 68.47, 204.75 56.44, 210.74 49.36 M182.52 81.82 C190.76 71.45, 200.44 62.08, 210.74 49.36 M193.16 81.78 C199.96 74.05, 205.53 69.63, 210.21 62.16 M193.16 81.78 C200.12 74.85, 206.75 66.76, 210.21 62.16" stroke="#fff7ed" stroke-width="1" fill="none"></path><path d="M20.5 0 C53.2 -1.1, 88.86 -1.43, 189.5 0 M20.5 0 C83.81 0.11, 147.85 1.1, 189.5 0 M189.5 0 C203.29 -1.16, 210.24 8.04, 210 20.5 M189.5 0 C201.54 0.91, 209.67 7.7, 210 20.5 M210 20.5 C210.15 30.36, 210.72 43.39, 210 61.5 M210 20.5 C210.99 32.46, 210.95 43.5, 210 61.5 M210 61.5 C208.45 75.45, 203.88 81.92, 189.5 82 M210 61.5 C210.93 77.27, 205.07 84.28, 189.5 82 M189.5 82 C154.74 81.9, 115.16 82.76, 20.5 82 M189.5 82 C128.04 81.86, 65.7 81.01, 20.5 82 M20.5 82 C8.47 82.21, -1.61 76.41, 0 61.5 M20.5 82 C7.83 80.13, 1.4 74.63, 0 61.5 M0 61.5 C1.26 46.76, -1.78 35.33, 0 20.5 M0 61.5 C0.29 49.98, -0.65 36.79, 0 20.5 M0 20.5 C-0.5 5.2, 7.18 1.35, 20.5 0 M0 20.5 C-1.47 8.44, 5.54 1.76, 20.5 0" stroke="#b45309" stroke-width="2" fill="none"></path></g><g transform="translate(870 88) rotate(0 85 16)"><text x="85" y="22.37548828125" font-family="Helvetica, sans-serif, Segoe UI Emoji" font-size="25px" fill="#b45309" text-anchor="middle" style="white-space: pre;" direction="ltr" dominant-baseline="alphabetic">Hook</text></g><g transform="translate(870 126) rotate(0 85 10)"><text x="85" y="13.42529296875" font-family="Helvetica, sans-serif, Segoe UI Emoji" font-size="15px" fill="#64748b" text-anchor="middle" style="white-space: pre;" direction="ltr" dominant-baseline="alphabetic">工具前后、提交前检查</text></g><g stroke-linecap="round" transform="translate(1048 455) rotate(0 95 46)"><path d="M5.47 6.08 C5.47 6.08, 5.47 6.08, 5.47 6.08 M5.47 6.08 C5.47 6.08, 5.47 6.08, 5.47 6.08 M3.63 20.38 C6.4 17.5, 9.02 12.62, 16.75 5.29 M3.63 20.38 C7.15 16.6, 10.09 14.73, 16.75 5.29 M3.76 32.42 C8.41 24.61, 15.61 17.13, 28.04 4.5 M3.76 32.42 C11.06 23.08, 19.28 14.71, 28.04 4.5 M3.9 44.46 C17.88 26.95, 30.23 13.41, 38.67 4.46 M3.9 44.46 C17.66 28.08, 31.34 13.11, 38.67 4.46 M3.37 57.26 C19.28 41.82, 35.25 22.47, 49.3 4.43 M3.37 57.26 C21.95 35.91, 38.83 16.22, 49.3 4.43 M3.51 69.3 C22.12 48.03, 42.46 28, 59.93 4.39 M3.51 69.3 C21.41 47.14, 40.45 26.36, 59.93 4.39 M5.61 79.08 C23.22 61.55, 37.76 42.09, 70.56 4.36 M5.61 79.08 C28.34 52.17, 51.21 27.36, 70.56 4.36 M8.37 88.1 C31.49 60.47, 54.62 35.97, 81.19 4.33 M8.37 88.1 C28.23 65.83, 47.99 43.09, 81.19 4.33 M14.4 93.35 C34.34 69.19, 53.41 48.19, 91.82 4.29 M14.4 93.35 C42.74 62.43, 68.75 31.86, 91.82 4.29 M25.03 93.31 C54.33 60.54, 83.95 25.07, 102.45 4.26 M25.03 93.31 C51.1 62.19, 75.74 32.56, 102.45 4.26 M35.66 93.28 C59.09 65.13, 81.87 41.74, 113.08 4.22 M35.66 93.28 C65.33 58.1, 96.86 23.24, 113.08 4.22 M46.29 93.24 C61.36 75.09, 78.22 57.62, 123.71 4.19 M46.29 93.24 C74.04 60.98, 100.59 29.74, 123.71 4.19 M56.92 93.21 C77.8 70.35, 98.42 46.33, 134.34 4.15 M56.92 93.21 C73.32 73.79, 89.73 55.21, 134.34 4.15 M66.9 93.93 C88.57 71.71, 107.77 50.16, 144.97 4.12 M66.9 93.93 C85.51 72.04, 103.25 50.45, 144.97 4.12 M77.53 93.89 C100.3 70.01, 120.99 42.54, 155.6 4.08 M77.53 93.89 C95.54 73.74, 114.7 52.17, 155.6 4.08 M88.16 93.86 C118.05 57.21, 150.32 20.25, 168.85 1.03 M88.16 93.86 C105.36 75.7, 121.41 56.2, 168.85 1.03 M98.79 93.83 C123.61 66.27, 147.4 37.64, 177.52 3.26 M98.79 93.83 C125.88 62.52, 150.75 32.13, 177.52 3.26 M109.42 93.79 C133.14 68.2, 157.1 41.89, 184.87 7 M109.42 93.79 C137.24 63.49, 163.79 30.06, 184.87 7 M120.05 93.76 C138.67 72.59, 155.78 56, 190.9 12.25 M120.05 93.76 C144.36 66.15, 167.7 37.61, 190.9 12.25 M130.68 93.72 C149.21 73.44, 167.54 53.25, 193.66 21.27 M130.68 93.72 C149.59 71.06, 168.67 50.07, 193.66 21.27 M141.31 93.69 C155.52 79.06, 165.44 65.83, 193.79 33.31 M141.31 93.69 C158.78 73.65, 176.3 53.15, 193.79 33.31 M151.94 93.65 C163.12 82.14, 172.18 71.92, 193.93 45.35 M151.94 93.65 C165.17 78.02, 179.57 61.31, 193.93 45.35 M162.57 93.62 C171.27 85.48, 177.54 76.23, 194.06 57.39 M162.57 93.62 C172.4 82.37, 182.58 70.47, 194.06 57.39 M171.23 95.85 C174.56 91.97, 178.85 83.27, 192.88 70.94 M171.23 95.85 C176.45 89.66, 179.99 84.5, 192.88 70.94" stroke="#f5f3ff" stroke-width="1" fill="none"></path><path d="M23 0 C51.73 1.84, 83.22 2.7, 167 0 M23 0 C53.85 1.8, 83.7 2.11, 167 0 M167 0 C182.68 -1.99, 191.51 6.63, 190 23 M167 0 C181.9 -0.32, 190.86 9.72, 190 23 M190 23 C191.89 40.63, 189.84 57.8, 190 69 M190 23 C189.98 33.63, 190.44 43.58, 190 69 M190 69 C188.03 83.03, 181.95 93.6, 167 92 M190 69 C190 82.21, 180.65 89.95, 167 92 M167 92 C122.45 90.52, 78.62 91.51, 23 92 M167 92 C128.67 92.73, 90.46 94.02, 23 92 M23 92 C5.98 90.49, 1.33 84.74, 0 69 M23 92 C5.85 90.02, 0.55 84.37, 0 69 M0 69 C1.65 58.61, -1.5 45.75, 0 23 M0 69 C-0.7 53.13, -0.33 35.9, 0 23 M0 23 C-1.88 6.01, 6.71 1.5, 23 0 M0 23 C-0.59 6.05, 7.85 1.6, 23 0" stroke="#7c3aed" stroke-width="2" fill="none"></path></g><g transform="translate(1068 472) rotate(0 75 16)"><text x="75" y="22.37548828125" font-family="Helvetica, sans-serif, Segoe UI Emoji" font-size="25px" fill="#7c3aed" text-anchor="middle" style="white-space: pre;" direction="ltr" dominant-baseline="alphabetic">MCP</text></g><g transform="translate(1068 510) rotate(0 75 10)"><text x="75" y="13.42529296875" font-family="Helvetica, sans-serif, Segoe UI Emoji" font-size="15px" fill="#64748b" text-anchor="middle" style="white-space: pre;" direction="ltr" dominant-baseline="alphabetic">外部系统能力入口</text></g><g stroke-linecap="round" transform="translate(80 250) rotate(0 95 45)"><path d="M5.33 5.96 C5.33 5.96, 5.33 5.96, 5.33 5.96 M5.33 5.96 C5.33 5.96, 5.33 5.96, 5.33 5.96 M0.87 23.28 C6.57 16.83, 10.45 11.52, 20.56 0.64 M0.87 23.28 C4.65 18.76, 10.51 12.99, 20.56 0.64 M0.35 36.08 C9.91 23.77, 21.73 12.45, 31.19 0.61 M0.35 36.08 C9.95 23.02, 20.5 12.38, 31.19 0.61 M0.48 48.12 C14.81 31.5, 27.19 19.06, 41.82 0.57 M0.48 48.12 C8.49 37.23, 18.57 27.54, 41.82 0.57 M0.62 60.16 C14.03 45.32, 24.39 34.04, 52.45 0.54 M0.62 60.16 C17.66 39.28, 37.41 18.73, 52.45 0.54 M0.75 72.2 C18.43 54.08, 32.88 32.46, 63.08 0.51 M0.75 72.2 C23.79 47.27, 44.75 22.37, 63.08 0.51 M3.51 81.22 C28.02 54.24, 46.92 31.87, 73.71 0.47 M3.51 81.22 C25.19 56.46, 46.55 32.25, 73.71 0.47 M8.89 87.23 C28.61 62.96, 49.14 42.05, 84.34 0.44 M8.89 87.23 C28.27 63.83, 49.14 40.34, 84.34 0.44 M17.55 89.46 C36.2 66.59, 56.61 45.01, 94.97 0.4 M17.55 89.46 C47.29 56.15, 76.92 21.74, 94.97 0.4 M26.87 90.93 C47.94 68.93, 70.56 45, 105.6 0.37 M26.87 90.93 C43.83 69.92, 62.73 49.99, 105.6 0.37 M37.5 90.9 C60.45 66.3, 81.05 43.57, 116.23 0.33 M37.5 90.9 C60.28 65.87, 81.23 42.07, 116.23 0.33 M48.13 90.86 C62.77 70.72, 80.31 54.41, 126.86 0.3 M48.13 90.86 C72.66 64.01, 96.66 35.99, 126.86 0.3 M58.76 90.83 C76.18 71.25, 91.94 53.19, 137.49 0.26 M58.76 90.83 C76.98 70.16, 95.88 49.97, 137.49 0.26 M69.39 90.79 C93.04 60.54, 120.69 31.79, 147.46 0.98 M69.39 90.79 C89.59 67.92, 110.42 43.3, 147.46 0.98 M80.02 90.76 C107.55 62.29, 134.86 28.63, 158.09 0.95 M80.02 90.76 C98.25 70.91, 114.61 51.43, 158.09 0.95 M90.65 90.73 C119.42 56.51, 146.39 26.68, 168.72 0.92 M90.65 90.73 C111.51 68.81, 130.41 46.29, 168.72 0.92 M101.28 90.69 C126.49 59.23, 155.02 30.68, 178.04 2.39 M101.28 90.69 C129.43 59.67, 156.62 29.66, 178.04 2.39 M111.91 90.66 C138.27 59.49, 164.09 31.64, 184.73 6.88 M111.91 90.66 C133.52 67.34, 153.19 43.16, 184.73 6.88 M122.54 90.62 C143.15 66.63, 164.02 44.23, 188.8 14.4 M122.54 90.62 C140.67 68.84, 158.74 47.61, 188.8 14.4 M133.17 90.59 C150.93 68.96, 173.62 46.62, 190.25 24.93 M133.17 90.59 C154.35 65.26, 176.75 41.25, 190.25 24.93 M143.8 90.55 C160.1 69.1, 177.76 49.97, 190.38 36.97 M143.8 90.55 C161.52 71.9, 176.59 51.45, 190.38 36.97 M154.43 90.52 C167.24 73.73, 179.77 58.84, 190.51 49.01 M154.43 90.52 C163.14 82.08, 169.79 71.61, 190.51 49.01 M165.06 90.48 C170.51 83.51, 176.55 77.58, 190.65 61.05 M165.06 90.48 C173.91 81.93, 181.99 71.32, 190.65 61.05 M177.66 88.19 C180.1 85.53, 183.12 83.39, 188.16 76.11 M177.66 88.19 C180.87 84.95, 183.46 80.65, 188.16 76.11" stroke="#ecfdf5" stroke-width="1" fill="none"></path><path d="M22.5 0 C52.58 -2.14, 81.22 -0.07, 167.5 0 M22.5 0 C57.37 -1.25, 93.52 -1.64, 167.5 0 M167.5 0 C183.06 1.19, 188.79 8.23, 190 22.5 M167.5 0 C183.26 -1.56, 192.05 6.15, 190 22.5 M190 22.5 C188.76 36.97, 188.08 47.35, 190 67.5 M190 22.5 C189.86 39.17, 190.82 55.42, 190 67.5 M190 67.5 C191.6 83.6, 181.02 89.28, 167.5 90 M190 67.5 C189.06 80.75, 181.83 88.21, 167.5 90 M167.5 90 C136.32 91.15, 107.41 88.25, 22.5 90 M167.5 90 C115.94 90.59, 63.48 90, 22.5 90 M22.5 90 C6.49 90.76, 0.28 82.08, 0 67.5 M22.5 90 C7.46 87.92, -0.29 83.11, 0 67.5 M0 67.5 C1.16 50.22, 1.9 36.68, 0 22.5 M0 67.5 C-0.57 58.18, -0.89 47.81, 0 22.5 M0 22.5 C0.73 5.83, 9.23 1.65, 22.5 0 M0 22.5 C0.29 7.25, 9.17 1.43, 22.5 0" stroke="#0f766e" stroke-width="2" fill="none"></path></g><g transform="translate(100 266) rotate(0 75 16)"><text x="75" y="23.2705078125" font-family="Helvetica, sans-serif, Segoe UI Emoji" font-size="26px" fill="#0f766e" text-anchor="middle" style="white-space: pre;" direction="ltr" dominant-baseline="alphabetic">用户目标</text></g><g transform="translate(100 304) rotate(0 75 10)"><text x="75" y="13.42529296875" font-family="Helvetica, sans-serif, Segoe UI Emoji" font-size="15px" fill="#64748b" text-anchor="middle" style="white-space: pre;" direction="ltr" dominant-baseline="alphabetic">任务、约束、验收标准</text></g><g stroke-linecap="round" transform="translate(310 250) rotate(0 105 45)"><path d="M5.33 5.96 C5.33 5.96, 5.33 5.96, 5.33 5.96 M5.33 5.96 C5.33 5.96, 5.33 5.96, 5.33 5.96 M3.5 20.27 C8.2 14.21, 9.79 12.54, 16.62 5.17 M3.5 20.27 C6.92 16.39, 10.73 14.14, 16.62 5.17 M3.63 32.31 C8.71 26.41, 15.69 18.12, 27.91 4.38 M3.63 32.31 C13.13 22.68, 21.6 10.84, 27.91 4.38 M3.76 44.35 C11.25 37.28, 19.62 26.57, 38.54 4.35 M3.76 44.35 C12.16 34.25, 20.75 25.14, 38.54 4.35 M3.9 56.39 C16.06 38.74, 31.19 24.22, 49.17 4.31 M3.9 56.39 C18.17 40.96, 32.45 22.56, 49.17 4.31 M3.37 69.18 C18.22 53.94, 27.55 42.46, 59.8 4.28 M3.37 69.18 C25.31 44.3, 45.99 20.09, 59.8 4.28 M6.13 78.21 C33.84 49.91, 57.5 20.77, 70.43 4.24 M6.13 78.21 C22.86 57.49, 41.3 37.82, 70.43 4.24 M8.89 87.23 C25.39 68.11, 41.79 52.52, 81.06 4.21 M8.89 87.23 C27.9 66.02, 48.29 43.59, 81.06 4.21 M15.58 91.72 C34.65 70.73, 55.89 45.14, 91.03 4.93 M15.58 91.72 C32.61 72.33, 47.94 54.38, 91.03 4.93 M25.56 92.44 C50.93 63.17, 80.85 30.31, 101.66 4.9 M25.56 92.44 C48.13 64.86, 71.81 39.93, 101.66 4.9 M36.19 92.41 C53.64 70.98, 75.02 50.11, 112.29 4.86 M36.19 92.41 C64.56 61.06, 91.23 29.89, 112.29 4.86 M46.82 92.37 C62 73.65, 79.38 51.47, 122.92 4.83 M46.82 92.37 C65.2 70.23, 85.52 46.73, 122.92 4.83 M57.45 92.34 C83.66 59.38, 113.04 30.64, 133.55 4.79 M57.45 92.34 C76.78 69.49, 95.24 48.75, 133.55 4.79 M68.08 92.3 C98.69 57.37, 130.02 22.32, 144.18 4.76 M68.08 92.3 C89.54 68.63, 110.91 43.61, 144.18 4.76 M78.71 92.27 C110.23 56.1, 139.39 25.12, 154.81 4.72 M78.71 92.27 C94.74 74.75, 109.9 55.85, 154.81 4.72 M89.34 92.24 C111.59 65.54, 137.65 38.39, 165.44 4.69 M89.34 92.24 C112.02 66.63, 133.74 41.13, 165.44 4.69 M99.97 92.2 C129.91 58.88, 159.53 26.01, 176.07 4.65 M99.97 92.2 C129.59 59.44, 157.52 27.34, 176.07 4.65 M109.94 92.92 C126.66 74.36, 146.03 51.14, 189.32 1.6 M109.94 92.92 C141.72 57.26, 172.6 21.5, 189.32 1.6 M120.57 92.89 C153.03 55.44, 183.37 20.65, 198.64 3.08 M120.57 92.89 C136.95 73.66, 151.72 55.19, 198.64 3.08 M131.2 92.85 C159.17 59.06, 186.45 25.09, 205.34 7.57 M131.2 92.85 C149.29 70.8, 167.66 49.94, 205.34 7.57 M141.83 92.82 C163.39 68.72, 183.89 44.77, 211.37 12.82 M141.83 92.82 C167.29 63.47, 192.38 33.01, 211.37 12.82 M152.46 92.78 C171.93 72.58, 190.01 50.63, 214.79 21.09 M152.46 92.78 C171.96 69.72, 192.09 47.66, 214.79 21.09 M163.09 92.75 C176.5 79.13, 185.67 64.05, 214.26 33.88 M163.09 92.75 C178.75 75.64, 194.4 57.2, 214.26 33.88 M173.72 92.71 C186.58 77.84, 200 65.5, 214.4 45.92 M173.72 92.71 C189.25 74.07, 206.79 56, 214.4 45.92 M184.35 92.68 C195.24 81.64, 204.52 71.55, 214.53 57.96 M184.35 92.68 C190.01 85.49, 196.43 77.88, 214.53 57.96 M193.01 94.91 C200.76 88.54, 206.63 79.06, 214.01 70.76 M193.01 94.91 C199.22 87.84, 206.25 80.86, 214.01 70.76" stroke="#eff6ff" stroke-width="1" fill="none"></path><path d="M22.5 0 C57.83 0.83, 91.5 0.09, 187.5 0 M22.5 0 C66.65 -1.49, 112.36 -0.56, 187.5 0 M187.5 0 C203.28 0.37, 210.06 5.99, 210 22.5 M187.5 0 C204.45 1.81, 208.64 7.34, 210 22.5 M210 22.5 C210.54 30.2, 211.23 42.18, 210 67.5 M210 22.5 C210.84 36.45, 210.29 50.22, 210 67.5 M210 67.5 C211.17 82.01, 203.93 90.96, 187.5 90 M210 67.5 C208.13 81.13, 202.85 88.47, 187.5 90 M187.5 90 C139.02 89.74, 90.35 90.97, 22.5 90 M187.5 90 C144.9 90.42, 104.4 89.97, 22.5 90 M22.5 90 C7.17 89.04, -0.78 81.24, 0 67.5 M22.5 90 C9.25 87.81, -1.13 83.69, 0 67.5 M0 67.5 C0.68 56.1, 1.3 42.63, 0 22.5 M0 67.5 C-0.43 55.37, 0.56 42.51, 0 22.5 M0 22.5 C-0.65 5.8, 7.92 1.81, 22.5 0 M0 22.5 C1.17 8.63, 6.05 1.27, 22.5 0" stroke="#2563eb" stroke-width="2" fill="none"></path></g><g transform="translate(330 266) rotate(0 85 16)"><text x="85" y="23.2705078125" font-family="Helvetica, sans-serif, Segoe UI Emoji" font-size="26px" fill="#2563eb" text-anchor="middle" style="white-space: pre;" direction="ltr" dominant-baseline="alphabetic">装载上下文</text></g><g transform="translate(330 304) rotate(0 85 10)"><text x="85" y="13.42529296875" font-family="Helvetica, sans-serif, Segoe UI Emoji" font-size="15px" fill="#64748b" text-anchor="middle" style="white-space: pre;" direction="ltr" dominant-baseline="alphabetic">项目文件、规则、Memory</text></g><g stroke-linecap="round" transform="translate(580 230) rotate(0 110 65)"><path d="M7.86 8.16 C7.86 8.16, 7.86 8.16, 7.86 8.16 M7.86 8.16 C7.86 8.16, 7.86 8.16, 7.86 8.16 M1.17 34.14 C12.82 24, 23.63 9.32, 30.7 0.18 M1.17 34.14 C7.35 26.18, 14.71 16.99, 30.7 0.18 M1.04 52.58 C15.66 32.57, 32.67 14.22, 46.97 -0.25 M1.04 52.58 C19.23 31.87, 38.43 10.4, 46.97 -0.25 M0.92 71.02 C22.92 48.61, 41.6 22.56, 62.59 0.08 M0.92 71.02 C17.21 51.99, 34.87 33.58, 62.59 0.08 M1.44 88.71 C31.23 52.46, 60.94 18.82, 78.2 0.41 M1.44 88.71 C23.07 62.6, 45.2 37.32, 78.2 0.41 M1.32 107.14 C34.32 68.67, 68.94 28.92, 94.48 -0.02 M1.32 107.14 C37.18 64.58, 74.25 23.89, 94.48 -0.02 M6.44 119.55 C37.69 85.74, 66.06 53.9, 110.09 0.3 M6.44 119.55 C29.28 92.44, 53.37 65.13, 110.09 0.3 M16.15 126.66 C56.89 78.55, 98.56 30.46, 126.37 -0.13 M16.15 126.66 C43.65 93.36, 72.29 61.66, 126.37 -0.13 M29.14 130.01 C59.05 95.28, 87.41 61.85, 141.98 0.2 M29.14 130.01 C58.92 97.14, 87.21 64.59, 141.98 0.2 M44.76 130.33 C75.38 95.75, 103.39 63.96, 158.26 -0.23 M44.76 130.33 C87.42 80.96, 130.69 30, 158.26 -0.23 M60.38 130.66 C85.59 101.5, 113.1 71.73, 173.87 0.09 M60.38 130.66 C89.04 99.64, 115.79 67.56, 173.87 0.09 M76.65 130.23 C101.56 100.16, 127.75 69.79, 189.49 0.42 M76.65 130.23 C99.01 103.06, 124.1 76.37, 189.49 0.42 M92.27 130.56 C125.37 92.97, 160.27 54.26, 203.14 3.01 M92.27 130.56 C120.03 98.29, 147.57 66.07, 203.14 3.01 M107.88 130.88 C137.12 96.24, 165.46 62.56, 212.85 10.13 M107.88 130.88 C139.59 94.35, 170.71 58.32, 212.85 10.13 M124.16 130.45 C147.62 102.17, 168.41 77.64, 218.63 21.77 M124.16 130.45 C142.05 108.83, 162.17 85.71, 218.63 21.77 M139.77 130.78 C163.05 104, 186.01 77.45, 219.81 38.7 M139.77 130.78 C167.92 99.36, 194.28 68.77, 219.81 38.7 M156.05 130.35 C167.57 112.86, 184.76 99.82, 220.34 56.39 M156.05 130.35 C180.68 102.3, 207.01 73.1, 220.34 56.39 M171.66 130.67 C186.07 114.74, 199.92 98.46, 220.21 74.83 M171.66 130.67 C187.93 112.64, 202.79 96.65, 220.21 74.83 M187.94 130.25 C195.39 120.71, 203.81 109.64, 220.08 93.26 M187.94 130.25 C197.62 117.11, 210.24 104.64, 220.08 93.26 M207.49 126.04 C209.82 122.66, 210.69 121.44, 216.67 115.48 M207.49 126.04 C210.28 122.53, 213.81 119.22, 216.67 115.48" stroke="#fff7ed" stroke-width="1.5" fill="none"></path><path d="M32 0 C62.63 -3.3, 95.4 -2.85, 188 0 M32 0 C79.85 0.42, 127.54 0.65, 188 0 M188 0 C210.32 -0.46, 221.33 10.93, 220 32 M188 0 C207.88 0.58, 219.84 11.69, 220 32 M220 32 C221.42 52.38, 219.48 73.43, 220 98 M220 32 C220.9 48.26, 220.85 64.6, 220 98 M220 98 C220.74 121.25, 209.66 128.63, 188 130 M220 98 C221.79 118.34, 210.7 128.73, 188 130 M188 130 C125.86 128.38, 65.08 129.73, 32 130 M188 130 C133.66 128.21, 78.42 129.89, 32 130 M32 130 C11.02 131.31, -1.83 121.24, 0 98 M32 130 C9.6 127.71, -1.97 121.1, 0 98 M0 98 C0.17 84.22, 0.68 70.58, 0 32 M0 98 C0.79 76.09, 1.09 53.77, 0 32 M0 32 C1.97 8.95, 9.78 1.96, 32 0 M0 32 C2.05 8.57, 10.7 1.1, 32 0" stroke="#c2410c" stroke-width="3" fill="none"></path></g><g transform="translate(598 266) rotate(0 92 16)"><text x="92" y="25.060546875" font-family="Helvetica, sans-serif, Segoe UI Emoji" font-size="28px" fill="#c2410c" text-anchor="middle" style="white-space: pre;" direction="ltr" dominant-baseline="alphabetic">模型计划</text></g><g transform="translate(598 304) rotate(0 92 10)"><text x="92" y="13.42529296875" font-family="Helvetica, sans-serif, Segoe UI Emoji" font-size="15px" fill="#64748b" text-anchor="middle" style="white-space: pre;" direction="ltr" dominant-baseline="alphabetic">判断下一步动作</text></g><g stroke-linecap="round" transform="translate(850 455) rotate(0 95 46)"><path d="M5.47 6.08 C5.47 6.08, 5.47 6.08, 5.47 6.08 M5.47 6.08 C5.47 6.08, 5.47 6.08, 5.47 6.08 M0.35 24.16 C9.75 15.73, 17.12 6.02, 20.69 0.76 M0.35 24.16 C5.57 17.77, 10.15 10.95, 20.69 0.76 M0.48 36.2 C7.1 26.74, 15.57 19.68, 31.32 0.72 M0.48 36.2 C6.82 28.14, 14.19 20.7, 31.32 0.72 M0.62 48.24 C10.36 36.85, 23.46 22.94, 41.95 0.69 M0.62 48.24 C13.3 34.29, 23.64 20.85, 41.95 0.69 M0.75 60.28 C16.3 42.06, 28.64 26.04, 52.58 0.66 M0.75 60.28 C14.71 45.65, 28.31 30.32, 52.58 0.66 M0.88 72.32 C21.16 50.81, 40.61 24.75, 63.21 0.62 M0.88 72.32 C13.53 57.35, 27.84 41.22, 63.21 0.62 M2.98 82.1 C30.49 50.88, 52.91 23.97, 73.84 0.59 M2.98 82.1 C29.75 51, 55.33 20.54, 73.84 0.59 M8.37 88.1 C34.18 59.15, 59.77 30.16, 84.47 0.55 M8.37 88.1 C27.73 66.08, 47.93 44.59, 84.47 0.55 M17.03 90.33 C38.67 67.15, 59.26 43.61, 95.1 0.52 M17.03 90.33 C39.27 64.99, 60.44 38.65, 95.1 0.52 M25.69 92.56 C52.98 59.12, 81.02 30.76, 105.73 0.48 M25.69 92.56 C46.25 68.81, 68.45 44.88, 105.73 0.48 M36.32 92.52 C53 72.46, 70.19 52.7, 116.36 0.45 M36.32 92.52 C61.44 63.43, 87.01 33.91, 116.36 0.45 M46.95 92.49 C63.43 69.36, 82.53 49.09, 126.99 0.41 M46.95 92.49 C76.84 58.78, 104.04 25.36, 126.99 0.41 M57.58 92.45 C77.46 69.38, 97.71 47.89, 137.62 0.38 M57.58 92.45 C79.23 68.14, 101.08 43.72, 137.62 0.38 M68.21 92.42 C96.64 61.64, 122.75 28.45, 148.25 0.35 M68.21 92.42 C94.05 63.43, 120.78 32.97, 148.25 0.35 M78.84 92.39 C103.84 65.06, 123.93 42.13, 158.88 0.31 M78.84 92.39 C110.09 55.7, 140.48 19.66, 158.88 0.31 M89.47 92.35 C108.58 70.89, 131.19 46.39, 169.51 0.28 M89.47 92.35 C120.09 58.06, 149.93 23.72, 169.51 0.28 M100.1 92.32 C119.48 70.76, 137.01 49.67, 178.17 2.51 M100.1 92.32 C114.55 74.13, 131.6 54.35, 178.17 2.51 M110.73 92.28 C135.55 64.36, 159.24 33.37, 184.87 7 M110.73 92.28 C128.03 72.49, 144.76 53.66, 184.87 7 M121.36 92.25 C145.02 68.06, 167.69 39.11, 188.93 14.51 M121.36 92.25 C138.53 70.96, 157.12 52.58, 188.93 14.51 M131.99 92.21 C149.24 75.13, 162.87 53.39, 189.72 25.8 M131.99 92.21 C154.28 65.35, 176.89 38.92, 189.72 25.8 M142.62 92.18 C159.21 71.59, 177.97 51.08, 189.86 37.84 M142.62 92.18 C160.07 71.4, 180.15 49.76, 189.86 37.84 M153.25 92.14 C168.1 74.41, 180.91 61.19, 189.99 49.88 M153.25 92.14 C163.8 79.82, 175.55 66.64, 189.99 49.88 M163.88 92.11 C168.57 84.68, 174.29 79.67, 190.12 61.92 M163.88 92.11 C171.24 83.24, 177.13 75.47, 190.12 61.92 M175.82 90.57 C179.13 85.68, 187.04 78.53, 188.94 75.47 M175.82 90.57 C180.95 85.2, 185.97 80.11, 188.94 75.47" stroke="#ecfdf5" stroke-width="1" fill="none"></path><path d="M23 0 C52.32 -0.27, 83.58 1.38, 167 0 M23 0 C70.97 0.24, 121.04 -0.21, 167 0 M167 0 C183.54 -1.28, 188.61 5.69, 190 23 M167 0 C182.07 -0.65, 191.03 9.88, 190 23 M190 23 C188.28 34.37, 187.71 42.77, 190 69 M190 23 C189.69 40.87, 190.14 57.07, 190 69 M190 69 C190.31 84.66, 181.57 92.31, 167 92 M190 69 C190.86 83.72, 180.11 90.99, 167 92 M167 92 C127.16 93.03, 82.23 90.5, 23 92 M167 92 C132.76 93.01, 96.62 92.82, 23 92 M23 92 C8.7 91.59, 1.11 85.41, 0 69 M23 92 C8.38 94.2, 1.78 82.08, 0 69 M0 69 C-0.29 56.02, 0.11 37.39, 0 23 M0 69 C0.75 50.87, 0.36 32.63, 0 23 M0 23 C0.58 5.93, 9.47 -1.89, 23 0 M0 23 C-1.68 6.94, 9.18 0.94, 23 0" stroke="#0f766e" stroke-width="2" fill="none"></path></g><g transform="translate(870 472) rotate(0 75 16)"><text x="75" y="23.2705078125" font-family="Helvetica, sans-serif, Segoe UI Emoji" font-size="26px" fill="#0f766e" text-anchor="middle" style="white-space: pre;" direction="ltr" dominant-baseline="alphabetic">执行 Tool</text></g><g transform="translate(870 510) rotate(0 75 10)"><text x="75" y="13.42529296875" font-family="Helvetica, sans-serif, Segoe UI Emoji" font-size="15px" fill="#64748b" text-anchor="middle" style="white-space: pre;" direction="ltr" dominant-baseline="alphabetic">读文件、跑命令、改代码</text></g><g stroke-linecap="round" transform="translate(580 455) rotate(0 110 46)"><path d="M5.47 6.08 C5.47 6.08, 5.47 6.08, 5.47 6.08 M5.47 6.08 C5.47 6.08, 5.47 6.08, 5.47 6.08 M3.63 20.38 C4.75 16.59, 10.18 14.73, 16.75 5.29 M3.63 20.38 C8.06 16.85, 10.17 12.02, 16.75 5.29 M3.76 32.42 C11.36 23.1, 20.45 12.79, 28.04 4.5 M3.76 32.42 C10.7 24.94, 16.71 17.49, 28.04 4.5 M3.9 44.46 C17.15 30.37, 29.46 13.9, 38.67 4.46 M3.9 44.46 C14.48 31.1, 24.86 18.77, 38.67 4.46 M3.37 57.26 C21.53 36.43, 34.51 17.31, 49.3 4.43 M3.37 57.26 C14.21 45.2, 23.12 33.13, 49.3 4.43 M3.51 69.3 C19.34 50.99, 33.43 35.34, 59.93 4.39 M3.51 69.3 C15.92 53.43, 30.77 39.07, 59.93 4.39 M5.61 79.08 C23.14 63.05, 37.16 44.53, 70.56 4.36 M5.61 79.08 C27.04 54.51, 49.26 29.08, 70.56 4.36 M8.37 88.1 C29.03 64.58, 50.26 41.18, 81.19 4.33 M8.37 88.1 C25.7 66.71, 43.47 46.25, 81.19 4.33 M15.06 92.59 C37.29 69.56, 54.86 45.84, 91.82 4.29 M15.06 92.59 C40.11 65.31, 64.49 35.59, 91.82 4.29 M25.03 93.31 C41.07 72.08, 60.86 52.69, 102.45 4.26 M25.03 93.31 C51.2 63, 78.17 32.08, 102.45 4.26 M35.66 93.28 C66.45 58.41, 96.03 22.56, 113.08 4.22 M35.66 93.28 C66.38 57.91, 97.65 23.01, 113.08 4.22 M46.29 93.24 C67.27 71.58, 86.15 49.52, 123.71 4.19 M46.29 93.24 C71.6 64.49, 94.91 37.83, 123.71 4.19 M56.92 93.21 C89.71 56.68, 119.65 20.42, 134.34 4.15 M56.92 93.21 C79.57 66.81, 100.9 41.94, 134.34 4.15 M66.9 93.93 C86.8 73.88, 101.07 52.24, 144.97 4.12 M66.9 93.93 C93.89 62.69, 119.07 31.93, 144.97 4.12 M77.53 93.89 C100.93 62.62, 127.08 34.14, 155.6 4.08 M77.53 93.89 C108.03 58.39, 138.85 23.34, 155.6 4.08 M88.16 93.86 C104.71 75.93, 118.43 58.09, 165.57 4.8 M88.16 93.86 C104.68 74.18, 121.39 53.19, 165.57 4.8 M98.79 93.83 C119.02 66.27, 141.76 40.72, 176.2 4.77 M98.79 93.83 C114.84 75.3, 132.76 55.3, 176.2 4.77 M109.42 93.79 C139.05 57.8, 170.77 22.78, 186.83 4.74 M109.42 93.79 C137.32 63.65, 161.95 32.77, 186.83 4.74 M120.05 93.76 C135.86 74.03, 152.44 54.6, 199.43 2.44 M120.05 93.76 C150.98 59.13, 181.92 23.5, 199.43 2.44 M130.68 93.72 C154.18 65.47, 180.72 35.74, 209.41 3.16 M130.68 93.72 C152.74 68.6, 174.63 43.81, 209.41 3.16 M141.31 93.69 C165.78 68.7, 188.66 41.87, 216.1 7.65 M141.31 93.69 C155.89 76.56, 171.64 59.13, 216.1 7.65 M151.94 93.65 C172.39 69.04, 196.69 42.53, 220.17 15.16 M151.94 93.65 C179.28 62.84, 204.68 31.28, 220.17 15.16 M162.57 93.62 C177.69 76.32, 192.62 59.76, 224.89 21.92 M162.57 93.62 C177.66 74.71, 192.45 57.57, 224.89 21.92 M173.2 93.58 C183.63 79.79, 194.7 65.85, 225.03 33.96 M173.2 93.58 C187.07 77.09, 201.42 60.7, 225.03 33.96 M183.83 93.55 C197.55 81.38, 205.18 67.17, 225.16 46 M183.83 93.55 C194.67 81.17, 204.57 69.81, 225.16 46 M194.46 93.52 C199.85 83.4, 210.09 74.61, 225.29 58.04 M194.46 93.52 C203.44 83.11, 213.54 72.47, 225.29 58.04 M202.47 96.5 C209.18 91.66, 211.29 84.88, 223.46 72.35 M202.47 96.5 C209.17 88.4, 217.94 78.89, 223.46 72.35" stroke="#eff6ff" stroke-width="1" fill="none"></path><path d="M23 0 C59.61 2.82, 93.96 1.66, 197 0 M23 0 C87.83 2.32, 151.05 1.17, 197 0 M197 0 C213.76 1.89, 219.88 7.45, 220 23 M197 0 C213.26 -1.89, 222.22 6.47, 220 23 M220 23 C220.06 36.7, 220.87 51.82, 220 69 M220 23 C218.66 38.09, 219.6 51.74, 220 69 M220 69 C219.89 83.07, 210.47 93.99, 197 92 M220 69 C219.92 84.1, 211.13 91.25, 197 92 M197 92 C130.49 91.55, 64.44 93.14, 23 92 M197 92 C137.74 93, 79.58 92.94, 23 92 M23 92 C9.38 93.86, 0.06 84.57, 0 69 M23 92 C5.57 94.1, 0.94 82.66, 0 69 M0 69 C-0.78 57.97, -0.49 47.5, 0 23 M0 69 C0.88 57.2, -0.2 45.61, 0 23 M0 23 C-0.8 5.91, 8.16 -1.73, 23 0 M0 23 C-0.8 8.31, 6.06 0.77, 23 0" stroke="#2563eb" stroke-width="2" fill="none"></path></g><g transform="translate(600 472) rotate(0 90 16)"><text x="90" y="23.2705078125" font-family="Helvetica, sans-serif, Segoe UI Emoji" font-size="26px" fill="#2563eb" text-anchor="middle" style="white-space: pre;" direction="ltr" dominant-baseline="alphabetic">观察结果</text></g><g transform="translate(600 510) rotate(0 90 10)"><text x="90" y="13.42529296875" font-family="Helvetica, sans-serif, Segoe UI Emoji" font-size="15px" fill="#64748b" text-anchor="middle" style="white-space: pre;" direction="ltr" dominant-baseline="alphabetic">stdout、diff、截图、报错</text></g><g stroke-linecap="round" transform="translate(1048 250) rotate(0 95 45)"><path d="M5.33 5.96 C5.33 5.96, 5.33 5.96, 5.33 5.96 M5.33 5.96 C5.33 5.96, 5.33 5.96, 5.33 5.96 M0.87 23.28 C4.53 15.89, 11.21 9.6, 20.56 0.64 M0.87 23.28 C5.95 16.53, 11.38 9.33, 20.56 0.64 M0.35 36.08 C7.54 25.04, 15.83 17.12, 31.19 0.61 M0.35 36.08 C9.29 25.29, 17.32 15.93, 31.19 0.61 M0.48 48.12 C14.93 34.93, 27.28 19.54, 41.82 0.57 M0.48 48.12 C13.93 31.32, 28.46 15.37, 41.82 0.57 M0.62 60.16 C12.41 43.68, 27.94 28.46, 52.45 0.54 M0.62 60.16 C20.49 36.77, 41.69 13, 52.45 0.54 M0.75 72.2 C12.63 57.49, 28.45 40.7, 63.08 0.51 M0.75 72.2 C17.73 52.16, 33.92 34.32, 63.08 0.51 M3.51 81.22 C27.92 55.77, 50.3 30.34, 73.71 0.47 M3.51 81.22 C23.77 56.88, 44.4 34.15, 73.71 0.47 M8.89 87.23 C27.77 67.16, 42.32 47.42, 84.34 0.44 M8.89 87.23 C27.38 66.26, 46.19 45.11, 84.34 0.44 M17.55 89.46 C36.89 63.51, 59.98 39, 94.97 0.4 M17.55 89.46 C46 57.54, 72.2 25.74, 94.97 0.4 M26.87 90.93 C54.24 61.02, 78.58 31.27, 105.6 0.37 M26.87 90.93 C45.94 70.73, 63.18 49.5, 105.6 0.37 M37.5 90.9 C67.95 57.87, 95.48 22.52, 116.23 0.33 M37.5 90.9 C59.56 65.66, 82.25 39.83, 116.23 0.33 M48.13 90.86 C70.54 67.13, 90.16 46.16, 126.86 0.3 M48.13 90.86 C68.36 67.58, 89.07 42.19, 126.86 0.3 M58.76 90.83 C84.27 57.36, 113.54 26.85, 137.49 0.26 M58.76 90.83 C81.54 64.63, 105.43 38.06, 137.49 0.26 M69.39 90.79 C91.27 62.71, 117.99 37.86, 147.46 0.98 M69.39 90.79 C97.98 58.13, 126.24 26.34, 147.46 0.98 M80.02 90.76 C108.19 54.9, 140.95 20.23, 158.09 0.95 M80.02 90.76 C108.74 57.12, 138.77 24.17, 158.09 0.95 M90.65 90.73 C118.83 55.93, 148.01 25.93, 168.72 0.92 M90.65 90.73 C111.51 66.51, 131.77 41.7, 168.72 0.92 M101.28 90.69 C126.32 62.74, 150.21 32.79, 178.04 2.39 M101.28 90.69 C118.91 68.32, 137.66 48.11, 178.04 2.39 M111.91 90.66 C130.89 70.97, 148.92 48.31, 184.73 6.88 M111.91 90.66 C131.26 69.69, 148.39 48.76, 184.73 6.88 M122.54 90.62 C142.77 71.34, 161.5 47.94, 188.8 14.4 M122.54 90.62 C142.25 67.23, 164.37 43.01, 188.8 14.4 M133.17 90.59 C154.7 65.85, 176.26 40.11, 190.25 24.93 M133.17 90.59 C153.28 68.73, 172.46 45.56, 190.25 24.93 M143.8 90.55 C153.71 77.75, 163.92 63.92, 190.38 36.97 M143.8 90.55 C154 78.93, 163.67 67.71, 190.38 36.97 M154.43 90.52 C164.65 79.25, 172.42 70.48, 190.51 49.01 M154.43 90.52 C164.7 79.34, 175.79 66.17, 190.51 49.01 M165.06 90.48 C169.93 82.87, 177.85 77.42, 190.65 61.05 M165.06 90.48 C170.21 82.73, 177.68 77.19, 190.65 61.05 M177.66 88.19 C180.63 83.79, 183.88 83.44, 188.16 76.11 M177.66 88.19 C182.18 84.38, 184.85 79.13, 188.16 76.11" stroke="#f8fafc" stroke-width="1" fill="none"></path><path d="M22.5 0 C50.32 -1.33, 83.67 -1.29, 167.5 0 M22.5 0 C51.43 -0.99, 81.02 -0.83, 167.5 0 M167.5 0 C184.14 1.07, 191.16 9.05, 190 22.5 M167.5 0 C184.62 1.48, 188.81 7.49, 190 22.5 M190 22.5 C190.93 33.11, 189.11 41.52, 190 67.5 M190 22.5 C190.55 34.55, 189.99 45.4, 190 67.5 M190 67.5 C189.46 83.64, 183.54 89.67, 167.5 90 M190 67.5 C188.99 82.64, 182.31 89.51, 167.5 90 M167.5 90 C125.73 88.28, 85.98 90, 22.5 90 M167.5 90 C134.06 90.7, 100.73 90.78, 22.5 90 M22.5 90 C5.89 90.14, -0.99 81.91, 0 67.5 M22.5 90 C7.18 91.99, 0.1 81.4, 0 67.5 M0 67.5 C-0.35 49.59, -0.18 34.44, 0 22.5 M0 67.5 C-0.98 53.14, -0.75 39.31, 0 22.5 M0 22.5 C1.81 5.72, 6.69 -1.58, 22.5 0 M0 22.5 C0.08 9.52, 7.38 0.61, 22.5 0" stroke="#475569" stroke-width="2" fill="none"></path></g><g transform="translate(1068 266) rotate(0 75 16)"><text x="75" y="23.2705078125" font-family="Helvetica, sans-serif, Segoe UI Emoji" font-size="26px" fill="#475569" text-anchor="middle" style="white-space: pre;" direction="ltr" dominant-baseline="alphabetic">输出结果</text></g><g transform="translate(1068 304) rotate(0 75 10)"><text x="75" y="13.42529296875" font-family="Helvetica, sans-serif, Segoe UI Emoji" font-size="15px" fill="#64748b" text-anchor="middle" style="white-space: pre;" direction="ltr" dominant-baseline="alphabetic">解释、diff、验证、下一步</text></g><g stroke-linecap="round" transform="translate(850 234) rotate(0 79 61)"><path d="M-0.14 62.16 C-0.14 62.16, -0.14 62.16, -0.14 62.16 M-0.14 62.16 C-0.14 62.16, -0.14 62.16, -0.14 62.16 M6.56 66.65 C11.95 58.13, 19.43 49.92, 32.8 36.46 M6.56 66.65 C11.83 60.63, 18.01 53.21, 32.8 36.46 M12.59 71.9 C26.9 55.99, 38.96 41.71, 65.08 11.52 M12.59 71.9 C32.9 49.44, 51.63 26.47, 65.08 11.52 M19.29 76.39 C41.36 52.57, 61.1 27.88, 83.58 2.43 M19.29 76.39 C34.39 58.38, 50.33 39.29, 83.58 2.43 M25.98 80.89 C47.14 57.99, 69.15 31.96, 89.62 7.68 M25.98 80.89 C40.33 64.42, 55.91 46.66, 89.62 7.68 M32.02 86.14 C45.91 67.45, 64.78 50.39, 95.66 12.93 M32.02 86.14 C48.39 68.01, 64.26 48.61, 95.66 12.93 M38.71 90.63 C59.23 66.91, 79.75 43.49, 102.35 17.42 M38.71 90.63 C58.83 69.37, 76.7 47.34, 102.35 17.42 M44.75 95.88 C62.21 78.23, 77.41 57.92, 108.39 22.67 M44.75 95.88 C61.67 75.27, 78.21 55.14, 108.39 22.67 M51.45 100.37 C73.61 78, 91.01 51.99, 114.43 27.92 M51.45 100.37 C75.65 72.74, 99.39 46.19, 114.43 27.92 M57.48 105.62 C72.26 90.73, 83.78 74.47, 121.12 32.41 M57.48 105.62 C79.98 78.3, 105.34 51.1, 121.12 32.41 M64.18 110.11 C82.77 88.63, 100.94 69.11, 127.16 37.66 M64.18 110.11 C81.9 90.73, 99.48 69.07, 127.16 37.66 M70.87 114.61 C93.34 86.11, 117.36 62.4, 133.2 42.91 M70.87 114.61 C91.92 90.94, 111.86 67.24, 133.2 42.91 M76.91 119.86 C92.6 104.1, 106.84 87.91, 139.89 47.4 M76.91 119.86 C102.53 92.15, 127.13 62.31, 139.89 47.4 M96.07 110.01 C111.2 91.74, 127.98 76.82, 145.93 52.65 M96.07 110.01 C113.66 87.27, 133.48 66.63, 145.93 52.65 M128.35 85.07 C135.11 76.91, 143.94 69.86, 152.62 57.15 M128.35 85.07 C134.54 77.75, 141.67 70.28, 152.62 57.15" stroke="#fefce8" stroke-width="1" fill="none"></path><path d="M80 0 C95.85 14.18, 112.41 24.11, 158 62 M80 0 C98.71 13.6, 116.75 29.54, 158 62 M158 62 C126.75 83.83, 97.02 108.52, 80 122 M158 62 C129.83 82.96, 102.42 105.82, 80 122 M80 122 C63.85 108, 46.13 94.74, 0 62 M80 122 C50.43 100.12, 19.78 77.3, 0 62 M0 62 C27.74 39.64, 54.29 21.42, 80 0 M0 62 C27.34 40.95, 51.75 20.38, 80 0" stroke="#a16207" stroke-width="2" fill="none"></path></g><g transform="translate(869 279) rotate(0 60 16)"><text x="60" y="21.48046875" font-family="Helvetica, sans-serif, Segoe UI Emoji" font-size="24px" fill="#854d0e" text-anchor="middle" style="white-space: pre;" direction="ltr" dominant-baseline="alphabetic">需要工具?</text></g><g stroke-linecap="round"><g transform="translate(280 295) rotate(0 9.106599193216539 0.11365789381574132)"><path d="M0.36 -0.36 C3.5 -0.39, 15.43 -0.47, 18.33 -0.39 M-0.12 0.65 C3.02 0.69, 15.16 0.09, 18.07 0.11" stroke="#0f766e" stroke-width="3" fill="none"></path></g><g transform="translate(280 295) rotate(0 9.106599193216539 0.11365789381574132)"><path d="M9.7 3.4 C11.12 2.97, 12.81 1.85, 18.07 0.11 M9.7 3.4 C12.32 2.38, 15.04 1.4, 18.07 0.11" stroke="#0f766e" stroke-width="3" fill="none"></path></g><g transform="translate(280 295) rotate(0 9.106599193216539 0.11365789381574132)"><path d="M9.54 -2.76 C10.99 -1.92, 12.71 -1.78, 18.07 0.11 M9.54 -2.76 C12.21 -1.8, 14.98 -0.8, 18.07 0.11" stroke="#0f766e" stroke-width="3" fill="none"></path></g></g><mask></mask><g transform="translate(279 271) rotate(0 15 9)"><text x="15" y="11.63525390625" font-family="Helvetica, sans-serif, Segoe UI Emoji" font-size="13px" fill="#0f766e" text-anchor="middle" style="white-space: pre;" direction="ltr" dominant-baseline="alphabetic">输入</text></g><g stroke-linecap="round"><g transform="translate(532 295) rotate(0 17.99931475138294 -0.05165195667765943)"><path d="M-0.3 -0.51 C5.84 -0.48, 30.25 0.36, 36.29 0.36 M0.55 0.41 C6.69 0.27, 30.17 -0.33, 36.01 -0.42" stroke="#0f766e" stroke-width="3" fill="none"></path></g><g transform="translate(532 295) rotate(0 17.99931475138294 -0.05165195667765943)"><path d="M19.23 6.1 C21.82 5.29, 26.69 3.43, 36.01 -0.42 M19.23 6.1 C22.94 4.42, 26.65 3.61, 36.01 -0.42" stroke="#0f766e" stroke-width="3" fill="none"></path></g><g transform="translate(532 295) rotate(0 17.99931475138294 -0.05165195667765943)"><path d="M18.97 -6.21 C21.63 -4.5, 26.55 -3.84, 36.01 -0.42 M18.97 -6.21 C22.76 -5.31, 26.53 -3.55, 36.01 -0.42" stroke="#0f766e" stroke-width="3" fill="none"></path></g></g><mask></mask><g stroke-linecap="round"><g transform="translate(810 295) rotate(0 14.021355536344913 -0.25709310152720377)"><path d="M-0.07 -0.04 C4.64 -0.07, 23.13 0.13, 27.72 0.18 M-0.77 -0.54 C4.16 -0.77, 23.92 -0.67, 28.82 -0.69" stroke="#c2410c" stroke-width="3" fill="none"></path></g><g transform="translate(810 295) rotate(0 14.021355536344913 -0.25709310152720377)"><path d="M15.66 4.09 C18.28 2.77, 21.26 1.52, 28.82 -0.69 M15.66 4.09 C20.59 2.23, 25.1 0.42, 28.82 -0.69" stroke="#c2410c" stroke-width="3" fill="none"></path></g><g transform="translate(810 295) rotate(0 14.021355536344913 -0.25709310152720377)"><path d="M15.66 -5.49 C18.32 -4.85, 21.3 -4.13, 28.82 -0.69 M15.66 -5.49 C20.63 -3.96, 25.13 -2.39, 28.82 -0.69" stroke="#c2410c" stroke-width="3" fill="none"></path></g></g><mask></mask><g stroke-linecap="round"><g transform="translate(1020 295) rotate(0 7.909218325085192 0.3588128250732723)"><path d="M0.15 0.43 C2.95 0.52, 13.59 0.08, 16.25 0.01 M-0.44 0.17 C2.36 0.41, 13.23 0.64, 15.95 0.71" stroke="#475569" stroke-width="3" fill="none"></path></g><g transform="translate(1020 295) rotate(0 7.909218325085192 0.3588128250732723)"><path d="M8.37 3.26 C10.25 2.92, 11.5 2.32, 15.95 0.71 M8.37 3.26 C10.46 2.52, 12.87 1.78, 15.95 0.71" stroke="#475569" stroke-width="3" fill="none"></path></g><g transform="translate(1020 295) rotate(0 7.909218325085192 0.3588128250732723)"><path d="M8.5 -2.21 C10.33 -1.43, 11.55 -0.91, 15.95 0.71 M8.5 -2.21 C10.58 -1.32, 12.95 -0.44, 15.95 0.71" stroke="#475569" stroke-width="3" fill="none"></path></g></g><mask></mask><g transform="translate(1020 270) rotate(0 12 9)"><text x="12" y="11.63525390625" font-family="Helvetica, sans-serif, Segoe UI Emoji" font-size="13px" fill="#475569" text-anchor="middle" style="white-space: pre;" direction="ltr" dominant-baseline="alphabetic">否</text></g><g stroke-linecap="round"><g transform="translate(928 365) rotate(0 -0.2654643756549717 38.124879746967935)"><path d="M-1.1 0.59 C-0.83 13.2, 0.16 62.51, 0.47 75.25 M0.53 -0.14 C0.78 12.63, -0.2 63.83, -0.24 76.39" stroke="#0f766e" stroke-width="3" fill="none"></path></g><g transform="translate(928 365) rotate(0 -0.2654643756549717 38.124879746967935)"><path d="M-8.52 52.8 C-5.9 58.49, -6.45 63.75, -0.24 76.39 M-8.52 52.8 C-5.4 62.77, -3.17 70.82, -0.24 76.39" stroke="#0f766e" stroke-width="3" fill="none"></path></g><g transform="translate(928 365) rotate(0 -0.2654643756549717 38.124879746967935)"><path d="M8.58 53 C7.69 58.49, 3.65 63.71, -0.24 76.39 M8.58 53 C5.11 62.9, 0.76 70.87, -0.24 76.39" stroke="#0f766e" stroke-width="3" fill="none"></path></g></g><mask></mask><g transform="translate(896 396) rotate(0 12 9)"><text x="12" y="11.63525390625" font-family="Helvetica, sans-serif, Segoe UI Emoji" font-size="13px" fill="#0f766e" text-anchor="middle" style="white-space: pre;" direction="ltr" dominant-baseline="alphabetic">是</text></g><g stroke-linecap="round"><g transform="translate(838 501) rotate(0 -13.112348611856532 -0.007718019479739269)"><path d="M-0.06 0.11 C-4.27 0.15, -21.59 0.45, -25.83 0.4 M-0.75 -0.3 C-4.98 -0.44, -22.03 -0.47, -26.17 -0.35" stroke="#0f766e" stroke-width="3" fill="none"></path></g><g transform="translate(838 501) rotate(0 -13.112348611856532 -0.007718019479739269)"><path d="M-14 -4.92 C-16.35 -3.78, -18.5 -2.45, -26.17 -0.35 M-14 -4.92 C-17.05 -3.73, -20.59 -2.53, -26.17 -0.35" stroke="#0f766e" stroke-width="3" fill="none"></path></g><g transform="translate(838 501) rotate(0 -13.112348611856532 -0.007718019479739269)"><path d="M-13.91 3.97 C-16.29 3.29, -18.46 2.8, -26.17 -0.35 M-13.91 3.97 C-16.99 2.73, -20.55 1.5, -26.17 -0.35" stroke="#0f766e" stroke-width="3" fill="none"></path></g></g><mask></mask><g stroke-linecap="round"><g transform="translate(690 445) rotate(0 -0.2502242609666041 -35.311847205460055)"><path d="M0.36 -1.12 C0.41 -12.85, -0.82 -57.86, -0.86 -69.5" stroke="#2563eb" stroke-width="4" fill="none" stroke-dasharray="8 11.5"></path></g><g transform="translate(690 445) rotate(0 -0.2502242609666041 -35.311847205460055)"><path d="M8.07 -46.15 C4.21 -52.35, 5.07 -55.51, -0.86 -69.5" stroke="#2563eb" stroke-width="4" fill="none"></path></g><g transform="translate(690 445) rotate(0 -0.2502242609666041 -35.311847205460055)"><path d="M-9.02 -45.87 C-9.39 -52.18, -5.02 -55.4, -0.86 -69.5" stroke="#2563eb" stroke-width="4" fill="none"></path></g></g><mask></mask><g transform="translate(702 402) rotate(0 27 9)"><text x="0" y="11.63525390625" font-family="Helvetica, sans-serif, Segoe UI Emoji" font-size="13px" fill="#2563eb" text-anchor="start" style="white-space: pre;" direction="ltr" dominant-baseline="alphabetic">下一轮</text></g><g stroke-linecap="round"><g transform="translate(415 170) rotate(0 -1.0222706325321553 33.33316434323788)"><path d="M-1.07 0.94 C-1.03 12.01, -1.21 54.88, -0.95 65.73" stroke="#0f766e" stroke-width="3.7" fill="none" stroke-dasharray="8 11.2"></path></g><g transform="translate(415 170) rotate(0 -1.0222706325321553 33.33316434323788)"><path d="M-9.69 42.31 C-6.48 45.6, -6.7 52.82, -0.95 65.73" stroke="#0f766e" stroke-width="3.7" fill="none"></path></g><g transform="translate(415 170) rotate(0 -1.0222706325321553 33.33316434323788)"><path d="M7.41 42.17 C7.12 45.34, 3.39 52.59, -0.95 65.73" stroke="#0f766e" stroke-width="3.7" fill="none"></path></g></g><mask></mask><g stroke-linecap="round"><g transform="translate(685 170) rotate(0 -0.08539183950051665 22.250515470560643)"><path d="M-0.27 -0.2 C-0.16 7.28, 0.09 37.21, 0.09 44.7" stroke="#2563eb" stroke-width="3.7" fill="none" stroke-dasharray="8 11.2"></path></g><g transform="translate(685 170) rotate(0 -0.08539183950051665 22.250515470560643)"><path d="M-7.71 23.6 C-6.5 28.11, -5.09 31.85, 0.09 44.7" stroke="#2563eb" stroke-width="3.7" fill="none"></path></g><g transform="translate(685 170) rotate(0 -0.08539183950051665 22.250515470560643)"><path d="M7.68 23.52 C5.73 28.01, 4 31.76, 0.09 44.7" stroke="#2563eb" stroke-width="3.7" fill="none"></path></g></g><mask></mask><g stroke-linecap="round"><g transform="translate(925 170) rotate(0 -0.572904565367935 24.77817589193583)"><path d="M-0.09 0.59 C-0.08 8.74, -1.2 40.54, -1.04 48.96" stroke="#b45309" stroke-width="3.7" fill="none" stroke-dasharray="8 11.2"></path></g><g transform="translate(925 170) rotate(0 -0.572904565367935 24.77817589193583)"><path d="M-9.34 25.38 C-6.63 28.49, -7.65 36.54, -1.04 48.96" stroke="#b45309" stroke-width="3.7" fill="none"></path></g><g transform="translate(925 170) rotate(0 -0.572904565367935 24.77817589193583)"><path d="M7.76 25.56 C6.97 28.62, 2.44 36.64, -1.04 48.96" stroke="#b45309" stroke-width="3.7" fill="none"></path></g></g><mask></mask><g stroke-linecap="round"><g transform="translate(960 168) rotate(0 56.256727655977045 35.1006816662848)"><path d="M0.39 -0.78 C19.27 10.97, 93.54 59.11, 112.12 70.98" stroke="#b45309" stroke-width="3.7" fill="none" stroke-dasharray="8 11.2"></path></g><g transform="translate(960 168) rotate(0 56.256727655977045 35.1006816662848)"><path d="M87.74 65.45 C91.46 66.71, 99.39 67.45, 112.12 70.98" stroke="#b45309" stroke-width="3.7" fill="none"></path></g><g transform="translate(960 168) rotate(0 56.256727655977045 35.1006816662848)"><path d="M97 51.07 C98.88 55.3, 104.91 59, 112.12 70.98" stroke="#b45309" stroke-width="3.7" fill="none"></path></g></g><mask></mask><g stroke-linecap="round"><g transform="translate(1034 501) rotate(0 -12.055803816765547 0.1951399443140076)"><path d="M0.4 0.12 C-3.6 0.09, -20.36 0.31, -24.51 0.27" stroke="#7c3aed" stroke-width="3.7" fill="none" stroke-dasharray="8 11.2"></path></g><g transform="translate(1034 501) rotate(0 -12.055803816765547 0.1951399443140076)"><path d="M-13.25 -3.87 C-15.42 -3.54, -17.56 -2.69, -24.51 0.27" stroke="#7c3aed" stroke-width="3.7" fill="none"></path></g><g transform="translate(1034 501) rotate(0 -12.055803816765547 0.1951399443140076)"><path d="M-13.22 4.34 C-15.43 2.98, -17.57 2.16, -24.51 0.27" stroke="#7c3aed" stroke-width="3.7" fill="none"></path></g></g><mask></mask></svg>