<svg width="1400" height="820" viewBox="0 0 1400 820" fill="none" xmlns="http://www.w3.org/2000/svg">
  <defs>
    <linearGradient id="flow" x1="66" y1="431" x2="1152" y2="431" gradientUnits="userSpaceOnUse">
      <stop stop-color="#0EA5A8" stop-opacity="0"/>
      <stop offset="0.18" stop-color="#12DCE5"/>
      <stop offset="0.56" stop-color="#2EA8FF"/>
      <stop offset="0.8" stop-color="#18D4C3"/>
      <stop offset="1" stop-color="#7DD3FC" stop-opacity="0.1"/>
    </linearGradient>
    <radialGradient id="coreGlow" cx="0" cy="0" r="1" gradientUnits="userSpaceOnUse" gradientTransform="translate(1148 382) rotate(90) scale(260)">
      <stop stop-color="#0284C7" stop-opacity="0.88"/>
      <stop offset="0.38" stop-color="#0E7490" stop-opacity="0.35"/>
      <stop offset="0.72" stop-color="#7DD3FC" stop-opacity="0.16"/>
      <stop offset="1" stop-color="#E0F2FE" stop-opacity="0"/>
    </radialGradient>
    <filter id="softGlow" x="-40%" y="-40%" width="180%" height="180%" color-interpolation-filters="sRGB">
      <feGaussianBlur stdDeviation="10" result="blur"/>
      <feColorMatrix in="blur" type="matrix" values="0 0 0 0 0.04 0 0 0 0 0.84 0 0 0 0 0.9 0 0 0 0.85 0"/>
      <feBlend in="SourceGraphic"/>
    </filter>
    <filter id="blueGlow" x="-80%" y="-80%" width="260%" height="260%" color-interpolation-filters="sRGB">
      <feGaussianBlur stdDeviation="18" result="blur"/>
      <feColorMatrix in="blur" type="matrix" values="0 0 0 0 0.05 0 0 0 0 0.45 0 0 0 0 1 0 0 0 0.55 0"/>
      <feBlend in="SourceGraphic"/>
    </filter>
    <filter id="amberGlow" x="-80%" y="-80%" width="260%" height="260%" color-interpolation-filters="sRGB">
      <feGaussianBlur stdDeviation="10" result="blur"/>
      <feColorMatrix in="blur" type="matrix" values="0 0 0 0 1 0 0 0 0 0.62 0 0 0 0 0.04 0 0 0 0.42 0"/>
      <feBlend in="SourceGraphic"/>
    </filter>
  </defs>

  <g opacity="0.8">
    <path d="M24 116H1310" stroke="#D8E7F3" stroke-dasharray="2 8"/>
    <path d="M24 674H1310" stroke="#D8E7F3" stroke-dasharray="2 8"/>
    <path d="M166 42V746" stroke="#D8E7F3" stroke-dasharray="2 8"/>
    <path d="M784 42V746" stroke="#D8E7F3" stroke-dasharray="2 8"/>
  </g>

  <g opacity="0.9">
    <rect x="210" y="90" width="380" height="136" rx="24" fill="#F8FCFF" fill-opacity="0.86" stroke="#BFD8EE"/>
    <rect x="262" y="150" width="76" height="54" rx="14" fill="white" fill-opacity="0.88" stroke="#C7DDEE"/>
    <rect x="362" y="150" width="76" height="54" rx="14" fill="white" fill-opacity="0.88" stroke="#C7DDEE"/>
    <rect x="462" y="150" width="76" height="54" rx="14" fill="white" fill-opacity="0.88" stroke="#C7DDEE"/>
    <path d="M338 177H362M438 177H462" stroke="#2378C7" stroke-width="2.5" stroke-linecap="round"/>
    <path d="M286 176H314M386 176H414M486 176H514" stroke="#7EA9CE" stroke-width="4" stroke-linecap="round"/>
  </g>

  <g opacity="0.92">
    <rect x="158" y="322" width="612" height="132" rx="28" fill="#F2F9FD" fill-opacity="0.9" stroke="#C6DDEA"/>
    <rect x="208" y="381" width="94" height="38" rx="19" fill="white" fill-opacity="0.78" stroke="#CADDEA"/>
    <rect x="328" y="381" width="94" height="38" rx="19" fill="white" fill-opacity="0.78" stroke="#CADDEA"/>
    <rect x="448" y="381" width="94" height="38" rx="19" fill="white" fill-opacity="0.78" stroke="#CADDEA"/>
    <rect x="568" y="381" width="94" height="38" rx="19" fill="white" fill-opacity="0.78" stroke="#CADDEA"/>
    <path d="M235 400H275M355 400H395M475 400H515M595 400H635" stroke="#8CAFC8" stroke-width="4" stroke-linecap="round"/>
  </g>

  <g opacity="0.92">
    <rect x="224" y="584" width="500" height="104" rx="24" fill="#F7FBFE" fill-opacity="0.88" stroke="#CCDEED"/>
    <rect x="270" y="628" width="82" height="32" rx="16" fill="white" fill-opacity="0.8" stroke="#D2E1EC"/>
    <rect x="376" y="628" width="82" height="32" rx="16" fill="white" fill-opacity="0.8" stroke="#D2E1EC"/>
    <rect x="482" y="628" width="82" height="32" rx="16" fill="white" fill-opacity="0.8" stroke="#D2E1EC"/>
    <rect x="588" y="628" width="82" height="32" rx="16" fill="white" fill-opacity="0.8" stroke="#D2E1EC"/>
  </g>

  <g opacity="0.95">
    <rect x="832" y="130" width="172" height="296" rx="26" fill="#FFF9EE" fill-opacity="0.88" stroke="#F2D59A"/>
    <g filter="url(#amberGlow)">
      <circle cx="872" cy="192" r="8" fill="#F59E0B"/>
      <circle cx="872" cy="242" r="8" fill="#F59E0B"/>
      <circle cx="872" cy="292" r="8" fill="#F59E0B"/>
      <circle cx="872" cy="342" r="8" fill="#F59E0B"/>
    </g>
    <path d="M892 192H960M892 242H954M892 292H960M892 342H948" stroke="#E7B85C" stroke-width="8" stroke-linecap="round" opacity="0.5"/>
  </g>

  <g filter="url(#blueGlow)">
    <circle cx="1150" cy="390" r="242" fill="url(#coreGlow)"/>
    <circle cx="1150" cy="390" r="194" stroke="#BFE9FF" stroke-opacity="0.55" stroke-width="2"/>
    <circle cx="1150" cy="390" r="154" stroke="#63D5FF" stroke-opacity="0.45" stroke-width="2" stroke-dasharray="10 12"/>
    <ellipse cx="1152" cy="600" rx="140" ry="40" fill="#93C5FD" fill-opacity="0.22"/>
    <ellipse cx="1152" cy="602" rx="88" ry="20" fill="#38BDF8" fill-opacity="0.45"/>
  </g>

  <g opacity="0.96">
    <rect x="1032" y="262" width="236" height="58" rx="29" fill="#074267" fill-opacity="0.9" stroke="#38BDF8" stroke-opacity="0.35"/>
    <rect x="1032" y="334" width="236" height="58" rx="29" fill="#074267" fill-opacity="0.9" stroke="#38BDF8" stroke-opacity="0.35"/>
    <rect x="1032" y="406" width="236" height="58" rx="29" fill="#074267" fill-opacity="0.9" stroke="#38BDF8" stroke-opacity="0.35"/>
    <rect x="1032" y="478" width="236" height="58" rx="29" fill="#074267" fill-opacity="0.9" stroke="#38BDF8" stroke-opacity="0.35"/>
    <path d="M1082 291H1222M1082 363H1222M1082 435H1222M1082 507H1222" stroke="#BDEBFF" stroke-opacity="0.75" stroke-width="7" stroke-linecap="round"/>
  </g>

  <g filter="url(#softGlow)">
    <path d="M70 120C122 146 82 266 116 318C162 389 309 404 492 404C646 404 770 392 844 430C930 474 954 560 1064 560C1146 560 1166 502 1198 456"
      stroke="url(#flow)" stroke-width="22" stroke-linecap="round"/>
    <path d="M70 120C122 146 82 266 116 318C162 389 309 404 492 404C646 404 770 392 844 430C930 474 954 560 1064 560C1146 560 1166 502 1198 456"
      stroke="#E0FCFF" stroke-width="3" stroke-linecap="round" stroke-dasharray="18 18"/>
    <circle cx="206" cy="398" r="17" fill="#0EA5A8" stroke="white" stroke-width="7"/>
    <circle cx="356" cy="404" r="17" fill="#0EA5A8" stroke="white" stroke-width="7"/>
    <circle cx="506" cy="404" r="17" fill="#0EA5A8" stroke="white" stroke-width="7"/>
    <circle cx="656" cy="398" r="17" fill="#0EA5A8" stroke="white" stroke-width="7"/>
    <circle cx="780" cy="408" r="21" fill="#22D3EE" stroke="white" stroke-width="7"/>
  </g>

  <g stroke="#2277C7" stroke-width="2.4" stroke-linecap="round" stroke-linejoin="round" stroke-dasharray="8 8" opacity="0.72">
    <path d="M590 178H748C790 178 790 274 832 274"/>
    <path d="M400 226V322"/>
    <path d="M530 226V322"/>
    <path d="M718 454V584"/>
    <path d="M156 454C100 454 100 612 224 612"/>
    <path d="M724 654C808 654 824 560 918 560"/>
  </g>

  <g opacity="0.72">
    <circle cx="102" cy="112" r="44" fill="#EFFAFF" stroke="#BFE6F2"/>
    <circle cx="102" cy="112" r="15" fill="#0E7490"/>
    <path d="M76 144C86 126 118 126 128 144" stroke="#0E7490" stroke-width="8" stroke-linecap="round"/>
  </g>

  <g opacity="0.8">
    <circle cx="943" cy="502" r="2.5" fill="#67E8F9"/>
    <circle cx="984" cy="548" r="2" fill="#67E8F9"/>
    <circle cx="1108" cy="204" r="2.5" fill="#7DD3FC"/>
    <circle cx="1198" cy="232" r="2" fill="#7DD3FC"/>
    <circle cx="1252" cy="596" r="2.4" fill="#38BDF8"/>
    <circle cx="736" cy="404" r="2.2" fill="#67E8F9"/>
    <circle cx="278" cy="404" r="2" fill="#67E8F9"/>
    <circle cx="610" cy="488" r="2" fill="#2EA8FF"/>
  </g>
</svg>
