<svg width="1600" height="260" viewBox="0 0 1600 260" fill="none" xmlns="http://www.w3.org/2000/svg">
  <defs>
    <linearGradient id="loop" x1="76" y1="132" x2="1524" y2="132" gradientUnits="userSpaceOnUse">
      <stop stop-color="#0F766E" stop-opacity="0"/>
      <stop offset="0.12" stop-color="#2DD4BF"/>
      <stop offset="0.48" stop-color="#22D3EE"/>
      <stop offset="0.72" stop-color="#F59E0B"/>
      <stop offset="0.9" stop-color="#2DD4BF"/>
      <stop offset="1" stop-color="#0F766E" stop-opacity="0"/>
    </linearGradient>
    <filter id="glow" x="-10%" y="-70%" width="120%" height="240%">
      <feGaussianBlur stdDeviation="9" result="blur"/>
      <feColorMatrix in="blur" type="matrix" values="0 0 0 0 0.01 0 0 0 0 0.8 0 0 0 0 0.88 0 0 0 0.75 0"/>
      <feBlend in="SourceGraphic"/>
    </filter>
  </defs>
  <g filter="url(#glow)">
    <path d="M76 154C76 106 118 84 170 84H1408C1484 84 1524 116 1524 154C1524 196 1484 216 1410 216H182C108 216 76 194 76 154Z"
      stroke="url(#loop)" stroke-width="13" stroke-linecap="round"/>
    <path d="M76 154C76 106 118 84 170 84H1408C1484 84 1524 116 1524 154C1524 196 1484 216 1410 216H182C108 216 76 194 76 154Z"
      stroke="#F0FDFF" stroke-opacity="0.92" stroke-width="2" stroke-linecap="round" stroke-dasharray="24 18"/>
  </g>
  <g opacity="0.86">
    <path d="M312 84C344 38 422 38 462 84" stroke="#67E8F9" stroke-opacity="0.32" stroke-width="5" stroke-linecap="round" stroke-dasharray="4 12"/>
    <path d="M674 84C704 34 786 36 826 84" stroke="#38BDF8" stroke-opacity="0.35" stroke-width="5" stroke-linecap="round" stroke-dasharray="4 12"/>
    <path d="M1032 84C1068 38 1152 38 1188 84" stroke="#FDBA74" stroke-opacity="0.38" stroke-width="5" stroke-linecap="round" stroke-dasharray="4 12"/>
  </g>
  <g>
    <circle cx="160" cy="84" r="8" fill="#0EA5A8"/>
    <circle cx="502" cy="84" r="8" fill="#22D3EE"/>
    <circle cx="840" cy="84" r="8" fill="#0284C7"/>
    <circle cx="1190" cy="84" r="8" fill="#F59E0B"/>
    <circle cx="1430" cy="216" r="8" fill="#14B8A6"/>
    <circle cx="490" cy="216" r="5" fill="#67E8F9"/>
    <circle cx="910" cy="216" r="5" fill="#FDE68A"/>
  </g>
</svg>
