<svg width="1600" height="260" viewBox="0 0 1600 260" fill="none" xmlns="http://www.w3.org/2000/svg">
  <defs>
    <linearGradient id="fade" x1="0" y1="96" x2="1600" y2="96" gradientUnits="userSpaceOnUse">
      <stop stop-color="#E6FFFB" stop-opacity="0.6"/>
      <stop offset="0.58" stop-color="#E0F2FE" stop-opacity="0.35"/>
      <stop offset="1" stop-color="#E0F2FE" stop-opacity="0"/>
    </linearGradient>
  </defs>
  <rect width="1600" height="260" fill="url(#fade)" opacity="0.36"/>
  <g stroke="#93C5FD" stroke-opacity="0.34" stroke-width="1.2">
    <path d="M30 184L118 132L206 166L288 92L382 140L484 86L596 128L716 76L832 126L940 72L1068 122L1194 80L1308 132L1450 92L1570 142"/>
    <path d="M118 132L288 92L484 86L716 76L940 72L1194 80L1450 92"/>
    <path d="M206 166L382 140L596 128L832 126L1068 122L1308 132L1570 142"/>
    <path d="M30 184L206 166L382 140L596 128L832 126L1068 122L1308 132L1570 142"/>
    <path d="M118 132L206 166M288 92L382 140M484 86L596 128M716 76L832 126M940 72L1068 122M1194 80L1308 132M1450 92L1570 142"/>
  </g>
  <g>
    <circle cx="30" cy="184" r="4" fill="#38BDF8" opacity="0.72"/>
    <circle cx="118" cy="132" r="3.6" fill="#0EA5A8" opacity="0.72"/>
    <circle cx="206" cy="166" r="4.8" fill="#2563EB" opacity="0.6"/>
    <circle cx="288" cy="92" r="3.4" fill="#14B8A6" opacity="0.66"/>
    <circle cx="382" cy="140" r="3.6" fill="#38BDF8" opacity="0.64"/>
    <circle cx="484" cy="86" r="4.2" fill="#0EA5A8" opacity="0.7"/>
    <circle cx="596" cy="128" r="3.4" fill="#38BDF8" opacity="0.58"/>
    <circle cx="716" cy="76" r="4.6" fill="#2563EB" opacity="0.56"/>
    <circle cx="832" cy="126" r="3.8" fill="#14B8A6" opacity="0.64"/>
    <circle cx="940" cy="72" r="4.6" fill="#0EA5A8" opacity="0.72"/>
    <circle cx="1068" cy="122" r="3.6" fill="#38BDF8" opacity="0.6"/>
    <circle cx="1194" cy="80" r="4.4" fill="#2563EB" opacity="0.54"/>
    <circle cx="1308" cy="132" r="3.6" fill="#14B8A6" opacity="0.62"/>
    <circle cx="1450" cy="92" r="4.8" fill="#0EA5A8" opacity="0.68"/>
    <circle cx="1570" cy="142" r="4" fill="#38BDF8" opacity="0.58"/>
  </g>
</svg>
